<svg id="icons" enable-background="new 0 0 64 64" height="512" viewBox="0 0 64 64" width="512" xmlns="http://www.w3.org/2000/svg"><path d="m59.995 61.999c0 .55-.45 1-1 1h-53.99c-.55 0-1-.45-1-1v-23.99c0-.55.45-1 1-1h53.99c.55 0 1 .45 1 1z" fill="#5d9cec"/><path d="m35.995 59c-2.21 0-4 1.79-4 4v-25.99c0-2.22 1.79-4.01 4-4.01h21v4.01 21.99z" fill="#e6e9ed"/><path d="m31.995 37.01v25.99c0-2.21-1.78-4-4-4h-20.99v-21.99-4.01h20.99c2.22 0 4 1.79 4 4.01z" fill="#f5f7fa"/><path d="m45.995 15c0 6.99-5.12 12.76-11.81 13.81l-2.19 2.19-2.18-2.19c-6.69-1.05-11.82-6.819-11.82-13.81 0-7.73 6.27-14 14-14 7.74 0 14 6.27 14 14z" fill="#5d9cec"/><g fill="#ccd1d9"><path d="m21 39.006h-8.998c-.553 0-1-.447-1-1s.447-1 1-1h8.998c.553 0 1 .447 1 1s-.447 1-1 1z"/><path d="m19.002 47.01h-7c-.553 0-1-.447-1-1s.447-1 1-1h7c.553 0 1 .447 1 1s-.447 1-1 1z"/><path d="m27 47.01h-3.998c-.553 0-1-.447-1-1s.447-1 1-1h3.998c.553 0 1 .447 1 1s-.447 1-1 1z"/><path d="m27 43.008h-10.998c-.553 0-1-.447-1-1s.447-1 1-1h10.998c.553 0 1 .447 1 1s-.447 1-1 1z"/><path d="m13.002 43.008h-1c-.553 0-1-.447-1-1s.447-1 1-1h1c.553 0 1 .447 1 1s-.447 1-1 1z"/><path d="m27 39.006h-2c-.553 0-1-.447-1-1s.447-1 1-1h2c.553 0 1 .447 1 1s-.447 1-1 1z"/><path d="m22 51.012h-9.998c-.553 0-1-.447-1-1s.447-1 1-1h9.998c.553 0 1 .447 1 1s-.447 1-1 1z"/><path d="m27 51.012h-1c-.553 0-1-.447-1-1s.447-1 1-1h1c.553 0 1 .447 1 1s-.447 1-1 1z"/><path d="m16.002 55.014h-4c-.553 0-1-.447-1-1s.447-1 1-1h4c.553 0 1 .447 1 1s-.447 1-1 1z"/><path d="m27 55.014h-6.998c-.553 0-1-.447-1-1s.447-1 1-1h6.998c.553 0 1 .447 1 1s-.447 1-1 1z"/><path d="m52.015 38.998h-8.998c-.553 0-1-.447-1-1s.447-1 1-1h8.998c.553 0 1 .447 1 1s-.448 1-1 1z"/><path d="m52.015 47.002h-7c-.553 0-1-.447-1-1s.447-1 1-1h7c.553 0 1 .447 1 1s-.448 1-1 1z"/><path d="m41.015 47.002h-3.998c-.553 0-1-.447-1-1s.447-1 1-1h3.998c.553 0 1 .447 1 1s-.448 1-1 1z"/><path d="m48.015 43h-10.998c-.553 0-1-.447-1-1s.447-1 1-1h10.998c.553 0 1 .447 1 1s-.448 1-1 1z"/><path d="m52.015 43h-1c-.553 0-1-.447-1-1s.447-1 1-1h1c.553 0 1 .447 1 1s-.448 1-1 1z"/><path d="m39.017 38.998h-2c-.553 0-1-.447-1-1s.447-1 1-1h2c.553 0 1 .447 1 1s-.448 1-1 1z"/><path d="m52.015 51.004h-9.998c-.553 0-1-.447-1-1s.447-1 1-1h9.998c.553 0 1 .447 1 1s-.448 1-1 1z"/><path d="m38.017 51.004h-1c-.553 0-1-.447-1-1s.447-1 1-1h1c.553 0 1 .447 1 1s-.448 1-1 1z"/><path d="m52.015 55.006h-4c-.553 0-1-.447-1-1s.447-1 1-1h4c.553 0 1 .447 1 1s-.448 1-1 1z"/><path d="m44.015 55.006h-6.998c-.553 0-1-.447-1-1s.447-1 1-1h6.998c.553 0 1 .447 1 1s-.448 1-1 1z"/></g><path d="m23.988 15.996c-.256 0-.512-.098-.707-.293-.391-.391-.391-1.023 0-1.414l3-3c.391-.391 1.023-.391 1.414 0s.391 1.023 0 1.414l-3 3c-.195.195-.451.293-.707.293z" fill="#4a89dc"/><path d="m26.988 18.996c-.256 0-.512-.098-.707-.293l-3-3c-.391-.391-.391-1.023 0-1.414s1.023-.391 1.414 0l3 3c.391.391.391 1.023 0 1.414-.195.195-.451.293-.707.293z" fill="#4a89dc"/><path d="m39.995 15.996c-.256 0-.512-.098-.707-.293l-3-3c-.391-.391-.391-1.023 0-1.414s1.023-.391 1.414 0l3 3c.391.391.391 1.023 0 1.414-.195.195-.451.293-.707.293z" fill="#4a89dc"/><path d="m36.995 18.996c-.256 0-.512-.098-.707-.293-.391-.391-.391-1.023 0-1.414l3-3c.391-.391 1.023-.391 1.414 0s.391 1.023 0 1.414l-3 3c-.195.195-.451.293-.707.293z" fill="#4a89dc"/><path d="m29.99 20.998c-.124 0-.25-.022-.371-.071-.513-.205-.763-.787-.558-1.3l4.001-10.004c.204-.515.79-.764 1.3-.558.513.205.763.787.558 1.3l-4.001 10.004c-.156.392-.532.629-.929.629z" fill="#4a89dc"/></svg>