<svg id="icons" enable-background="new 0 0 64 64" height="512" viewBox="0 0 64 64" width="512" xmlns="http://www.w3.org/2000/svg"><path d="m39 28.99v31h21v3.01h-24v-17.01-17z" fill="#ccd1d9"/><path d="m63 31.99h-6v-6z" fill="#f5f7fa"/><path d="m50.98 25.99h6.02v6h6v28h-3-21v-31-3z" fill="#e6e9ed"/><path d="m4 45v.99h-2.99v-40.99h2.99z" fill="#545c66"/><path d="m50.98 5v20.99h-11.98v3h-3v17h-.01-31.99v-.99-40h46.96z" fill="#656d78"/><path d="m50.96 3v2h-46.96-2.99-.01v-2c0-1.11.89-2 2-2h45.96c1.11 0 2 .89 2 2z" fill="#aab2bd"/><path d="m4.03 4c-.552 0-1.005-.447-1.005-1s.443-1 .995-1h.01c.552 0 1 .447 1 1s-.448 1-1 1z" fill="#ccd1d9"/><path d="m7.03 4c-.552 0-1.005-.447-1.005-1s.443-1 .995-1h.01c.552 0 1 .447 1 1s-.448 1-1 1z" fill="#ccd1d9"/><path d="m10.03 4c-.552 0-1.005-.447-1.005-1s.442-1 .994-1h.011c.552 0 1 .447 1 1s-.448 1-1 1z" fill="#ccd1d9"/><path d="m27.006 9.996h-19.002c-.553 0-1-.447-1-1s.447-1 1-1h19.002c.553 0 1 .447 1 1s-.447 1-1 1z" fill="#5d9cec"/><path d="m30.006 13.996h-20.002c-.553 0-1-.447-1-1s.447-1 1-1h20.002c.553 0 1 .447 1 1s-.447 1-1 1z" fill="#a0d468"/><path d="m24.008 38.012h-14.004c-.553 0-1-.447-1-1s.447-1 1-1h14.004c.553 0 1 .447 1 1s-.447 1-1 1z" fill="#a0d468"/><path d="m36.006 13.996h-2c-.553 0-1-.447-1-1s.447-1 1-1h2c.553 0 1 .447 1 1s-.447 1-1 1z" fill="#a0d468"/><path d="m14.004 42h-6c-.553 0-1-.447-1-1s.447-1 1-1h6c.553 0 1 .447 1 1s-.447 1-1 1z" fill="#5d9cec"/><path d="m16.004 17.996h-4c-.553 0-1-.447-1-1s.447-1 1-1h4c.553 0 1 .447 1 1s-.447 1-1 1z" fill="#ed5565"/><path d="m41.006 17.996h-21.002c-.553 0-1-.447-1-1s.447-1 1-1h21.002c.553 0 1 .447 1 1s-.447 1-1 1z" fill="#ed5565"/><path d="m35.006 21.996h-23.002c-.553 0-1-.447-1-1s.447-1 1-1h23.002c.553 0 1 .447 1 1s-.447 1-1 1z" fill="#ffce54"/><path d="m25.006 25.996h-13.002c-.553 0-1-.447-1-1s.447-1 1-1h13.002c.553 0 1 .447 1 1s-.447 1-1 1z" fill="#ccd1d9"/><path d="m32.013 34.004h-20.009c-.553 0-1-.447-1-1s.447-1 1-1h20.009c.553 0 1 .447 1 1s-.448 1-1 1z" fill="#ed5565"/><path d="m32.003 29.996h-12.998c-.553 0-1-.447-1-1s.447-1 1-1h12.998c.553 0 1 .447 1 1s-.447 1-1 1z" fill="#ffce54"/><path d="m15.005 29.996h-3.001c-.553 0-1-.447-1-1s.447-1 1-1h3.001c.553 0 1 .447 1 1s-.447 1-1 1z" fill="#ffce54"/><g fill="#ccd1d9"><path d="m58 40h-13.999c-.553 0-1-.447-1-1s.447-1 1-1h13.999c.553 0 1 .447 1 1s-.447 1-1 1z"/><path d="m58 44h-13.999c-.553 0-1-.447-1-1s.447-1 1-1h13.999c.553 0 1 .447 1 1s-.447 1-1 1z"/><path d="m58 48h-13.999c-.553 0-1-.447-1-1s.447-1 1-1h13.999c.553 0 1 .447 1 1s-.447 1-1 1z"/><path d="m51 52h-6.999c-.553 0-1-.447-1-1s.447-1 1-1h6.999c.553 0 1 .447 1 1s-.447 1-1 1z"/></g></svg>