<svg id="icons" enable-background="new 0 0 64 64" height="512" viewBox="0 0 64 64" width="512" xmlns="http://www.w3.org/2000/svg"><path d="m32.012 32.984c-.553 0-1-.447-1-1v-5.994c0-.553.447-1 1-1s1 .447 1 1v5.994c0 .553-.448 1-1 1z" fill="#aab2bd"/><path d="m15 39.014c-.553 0-1-.447-1-1v-6.029c0-.553.447-1 1-1s1 .447 1 1v6.029c0 .552-.447 1-1 1z" fill="#aab2bd"/><path d="m48.998 39.014c-.553 0-1-.447-1-1v-6.029c0-.553.447-1 1-1s1 .447 1 1v6.029c0 .552-.447 1-1 1z" fill="#aab2bd"/><path d="m48.998 32.984h-33.998c-.553 0-1-.447-1-1s.447-1 1-1h33.998c.553 0 1 .447 1 1s-.447 1-1 1z" fill="#aab2bd"/><path d="m19.998 1.012h23.99c1.109 0 2 .9 2 2v1h-27.97-.02v-1c0-1.1.891-2 2-2z" fill="#ccd1d9"/><path d="m45.988 4.012h.02v20.978h-14-13.99v-20.978zm-23.99 11.98h20v-8h-20z" fill="#e6e9ed"/><path d="m62.988 40.012v1h-27.98-.01v-1c0-1.1.891-2 2-2h12 11.99c1.1 0 2 .9 2 2z" fill="#ccd1d9"/><path d="m46.998 52.992v-8h-8v8zm12 0v-8h-8v8zm3.99-11.98h.01v20.978h-27.99v-20.978z" fill="#e6e9ed"/><path d="m28.988 41.012h.01v20.978h-27.99v-20.978zm-3.98 17.98v-4h-20.01v4zm-12.01-8v-6h-8v6z" fill="#e6e9ed"/><path d="m2.998 38.012h12 11.99c1.1 0 2 .9 2 2v1h-27.98-.01v-1c0-1.1.891-2 2-2z" fill="#ccd1d9"/><path d="m45.006 25.988h-25.988c-.553 0-1-.447-1-1s.447-1 1-1h25.988c.553 0 1 .447 1 1s-.447 1-1 1z" fill="#e6e9ed"/><path d="m41.998 6.99h-19.998c-.553 0-1 .447-1 1v7c0 .553.447 1 1 1h19.998c.553 0 1-.447 1-1v-7c0-.552-.447-1-1-1z" fill="#5d9cec"/><path d="m41.998 19.992h-19.998c-.553 0-1-.447-1-1s.447-1 1-1h19.998c.553 0 1 .447 1 1s-.447 1-1 1z" fill="#ccd1d9"/><path d="m41.998 22.992h-19.998c-.553 0-1-.447-1-1s.447-1 1-1h19.998c.553 0 1 .447 1 1s-.447 1-1 1z" fill="#ccd1d9"/><path d="m37.998 12.49h-11.998c-.553 0-1-.447-1-1s.447-1 1-1h11.998c.553 0 1 .447 1 1s-.447 1-1 1z" fill="#4a89dc"/><path d="m28.002 62.988h-25.988c-.553 0-1-.447-1-1s.447-1 1-1h25.988c.553 0 1 .447 1 1s-.447 1-1 1z" fill="#e6e9ed"/><path d="m62.002 62.988h-25.99c-.553 0-1-.447-1-1s.447-1 1-1h25.99c.553 0 1 .447 1 1s-.447 1-1 1z" fill="#e6e9ed"/><path d="m12.998 43.99h-8c-.553 0-1 .447-1 1v5.998c0 .553.447 1 1 1h8c.553 0 1-.447 1-1v-5.998c0-.552-.447-1-1-1z" fill="#5d9cec"/><path d="m46.998 43.99h-8c-.553 0-1 .447-1 1v8c0 .553.447 1 1 1h8c.553 0 1-.447 1-1v-8c0-.552-.447-1-1-1z" fill="#5d9cec"/><g fill="#ccd1d9"><path d="m25.01 45.99h-8c-.553 0-1-.447-1-1s.447-1 1-1h8c.553 0 1 .447 1 1s-.447 1-1 1z"/><path d="m25.01 48.988h-8c-.553 0-1-.447-1-1s.447-1 1-1h8c.553 0 1 .447 1 1s-.447 1-1 1z"/><path d="m25.01 51.988h-8c-.553 0-1-.447-1-1s.447-1 1-1h8c.553 0 1 .447 1 1s-.447 1-1 1z"/><path d="m46.998 56.992h-7.998c-.553 0-1-.447-1-1s.447-1 1-1h7.998c.553 0 1 .447 1 1s-.447 1-1 1z"/><path d="m46.998 59.992h-7.998c-.553 0-1-.447-1-1s.447-1 1-1h7.998c.553 0 1 .447 1 1s-.447 1-1 1z"/></g><path d="m58.998 43.99h-8c-.553 0-1 .447-1 1v8c0 .553.447 1 1 1h8c.553 0 1-.447 1-1v-8c0-.552-.447-1-1-1z" fill="#5d9cec"/><path d="m58.998 56.992h-7.998c-.553 0-1-.447-1-1s.447-1 1-1h7.998c.553 0 1 .447 1 1s-.447 1-1 1z" fill="#ccd1d9"/><path d="m58.998 59.992h-7.998c-.553 0-1-.447-1-1s.447-1 1-1h7.998c.553 0 1 .447 1 1s-.447 1-1 1z" fill="#ccd1d9"/><path d="m25.01 53.988h-20.012c-.553 0-1 .447-1 1v4.002c0 .553.447 1 1 1h20.012c.553 0 1-.447 1-1v-4.002c0-.552-.447-1-1-1z" fill="#656d78"/></svg>