<svg id="icons" enable-background="new 0 0 64 64" height="512" viewBox="0 0 64 64" width="512" xmlns="http://www.w3.org/2000/svg"><path d="m62.98 49.53v1h-17.96-.02v-1c0-1.11.889-2 2-2h13.98c1.11 0 2 .89 2 2z" fill="#ccd1d9"/><path d="m62.98 50.53h.02v9.969h-17.98v-9.969z" fill="#e6e9ed"/><path d="m18.98 49.53v1h-17.97-.01v-1c0-1.11.889-2 2-2h13.98c1.1 0 2 .89 2 2z" fill="#ccd1d9"/><path d="m40.98 51.53h.02v9.969h-17.98v-9.969z" fill="#e6e9ed"/><path d="m18.98 50.53h.02v9.969h-17.99v-9.969z" fill="#e6e9ed"/><path d="m40.98 50.53v1h-17.96-.02v-1c0-1.101.9-2 2-2h13.98c1.11 0 2 .9 2 2z" fill="#ccd1d9"/><path d="m41.99 24.51v-8h-19.99v8zm4-11.98h.01v20.979h-27.99v-20.979z" fill="#e6e9ed"/><path d="m45.99 11.53v1h-27.98-.01v-1c0-1.101.889-2 2-2h23.99c1.1 0 2 .9 2 2z" fill="#ccd1d9"/><path d="m45.004 34.511h-25.988c-.553 0-1-.447-1-1s.447-1 1-1h25.988c.553 0 1 .447 1 1s-.447 1-1 1z" fill="#e6e9ed"/><path d="m41.996 15.512h-19.998c-.553 0-1 .447-1 1v7c0 .553.447 1 1 1h19.998c.553 0 1-.447 1-1v-7c0-.553-.447-1-1-1z" fill="#5d9cec"/><path d="m41.996 28.513h-19.998c-.553 0-1-.447-1-1s.447-1 1-1h19.998c.553 0 1 .447 1 1s-.447 1-1 1z" fill="#ccd1d9"/><path d="m41.996 31.513h-19.998c-.553 0-1-.447-1-1s.447-1 1-1h19.998c.553 0 1 .447 1 1s-.447 1-1 1z" fill="#ccd1d9"/><path d="m37.996 21.012h-11.998c-.553 0-1-.447-1-1s.447-1 1-1h11.998c.553 0 1 .447 1 1s-.447 1-1 1z" fill="#4a89dc"/><path d="m32.002 46.501h-.002c-.553-.001-1-.448-.998-1.001l.008-7.999c0-.552.447-.999 1-.999.553.001 1 .448 1 1.001l-.008 7.999c-.002.552-.449.999-1 .999z" fill="#ccd1d9"/><path d="m31.994 46.501c-.258 0-.514-.098-.709-.294-.391-.392-.389-1.024.002-1.414l2.008-2c.393-.393 1.025-.39 1.414.002.391.392.389 1.024-.002 1.414l-2.008 2c-.195.195-.451.292-.705.292z" fill="#ccd1d9"/><path d="m31.994 46.501c-.258 0-.514-.098-.709-.294l-1.992-2c-.391-.392-.389-1.024.002-1.414.393-.393 1.025-.39 1.414.002l1.992 2c.391.392.389 1.024-.002 1.414-.195.195-.451.292-.705.292z" fill="#ccd1d9"/><path d="m36.525 2.652c-.295-.184-.666-.198-.973-.044l-1.355.678-1.488-1.49c-.188-.188-.441-.294-.707-.294-.004 0-.006 0-.008 0-.27.002-.525.112-.711.305l-1.433 1.481-1.412-.685c-.309-.15-.676-.133-.967.052-.291.183-.469.503-.469.848v2.998c0 .553.447 1 1 1h7.998c.553 0 1-.447 1-1v-2.998c0-.347-.18-.669-.475-.851z" fill="#ffce54"/><g fill="#ccd1d9"><path d="m10.004 44.51c-.256 0-.512-.098-.707-.293-.391-.391-.391-1.023 0-1.414l6.01-6.01c.391-.391 1.023-.391 1.414 0s.391 1.023 0 1.414l-6.01 6.01c-.195.195-.451.293-.707.293z"/><path d="m10.004 44.51c-.553 0-1-.447-1-1v-3.01c0-.553.447-1 1-1s1 .447 1 1v3.01c0 .553-.447 1-1 1z"/><path d="m13.01 44.51h-3.006c-.553 0-1-.447-1-1s.447-1 1-1h3.006c.553 0 1 .447 1 1s-.447 1-1 1z"/><path d="m55.008 44.51c-.256 0-.512-.098-.707-.293l-6.01-6.01c-.391-.391-.391-1.023 0-1.414s1.023-.391 1.414 0l6.01 6.01c.391.391.391 1.023 0 1.414-.195.195-.451.293-.707.293z"/><path d="m55.008 44.51c-.553 0-1-.447-1-1v-3.01c0-.553.447-1 1-1s1 .447 1 1v3.01c0 .553-.447 1-1 1z"/><path d="m55.008 44.51h-3.004c-.553 0-1-.447-1-1s.447-1 1-1h3.004c.553 0 1 .447 1 1s-.447 1-1 1z"/></g><path d="m17.996 61.497h-15.98c-.553 0-1-.447-1-1s.447-1 1-1h15.98c.553 0 1 .447 1 1s-.447 1-1 1z" fill="#e6e9ed"/><path d="m40 62.498h-15.979c-.553 0-1-.447-1-1s.447-1 1-1h15.979c.553 0 1 .447 1 1s-.447 1-1 1z" fill="#e6e9ed"/><path d="m62 61.497h-15.98c-.553 0-1-.447-1-1s.447-1 1-1h15.98c.553 0 1 .447 1 1s-.447 1-1 1z" fill="#e6e9ed"/><path d="m15.002 55.5h-10c-.553 0-1-.447-1-1s.447-1 1-1h10c.553 0 1 .447 1 1s-.447 1-1 1z" fill="#ccd1d9"/><path d="m15.002 58.499h-10c-.553 0-1-.447-1-1s.447-1 1-1h10c.553 0 1 .447 1 1s-.447 1-1 1z" fill="#ccd1d9"/><path d="m59 55.5h-10c-.553 0-1-.447-1-1s.447-1 1-1h10c.553 0 1 .447 1 1s-.447 1-1 1z" fill="#ccd1d9"/><path d="m59 58.499h-10c-.553 0-1-.447-1-1s.447-1 1-1h10c.553 0 1 .447 1 1s-.447 1-1 1z" fill="#ccd1d9"/><path d="m36.994 56.516h-10c-.553 0-1-.447-1-1s.447-1 1-1h10c.553 0 1 .447 1 1s-.447 1-1 1z" fill="#ccd1d9"/><path d="m36.994 59.515h-10c-.553 0-1-.447-1-1s.447-1 1-1h10c.553 0 1 .447 1 1s-.447 1-1 1z" fill="#ccd1d9"/></svg>