<svg id="icons" enable-background="new 0 0 64 64" height="512" viewBox="0 0 64 64" width="512" xmlns="http://www.w3.org/2000/svg"><path d="m53.01 38.995c5.521.01 9.99 4.48 9.99 10 0 5.53-4.479 10-10 10-5.52 0-10-4.47-10-10 0-3.54 1.84-6.65 4.62-8.43 1.55-.99 3.4-1.57 5.38-1.57z" fill="#ed5565"/><path d="m24.09 39.005-.54 2.98-.55 3.02v3.99l-20.979.013-1-1.013v-1.99-.05l6.979-6.95z" fill="#656d78"/><path d="m47.62 40.565c-2.78 1.779-4.62 4.89-4.62 8.43h-12v-3.99l-.55-3.02-.53-2.98h16.101z" fill="#656d78"/><path d="m29.92 39.005.53 2.98-.11.02h-3.34-3.33l-.12-.02.54-2.98.91-5h2 2.01z" fill="#ccd1d9"/><path d="m31 45.005h-8l.55-3.02.12.02h3.33 3.34l.11-.02z" fill="#ccd1d9"/><path d="m23 45.005h8v3.99h-8z" fill="#aab2bd"/><path d="m46.021 9.005h-38.021-6.979-.021v-2c0-1.109.9-2 2-2h47.99c1.109 0 2 .891 2 2v2z" fill="#aab2bd"/><path d="m53.01 9.005v29.99h-.01c-1.979 0-3.83.58-5.38 1.57l-1.6-1.561v-30h6.97.02z" fill="#545c66"/><path d="m8 9.005v30h16.09l.91-5h2 2.01l.91 5h16.101v-30z" fill="#434a54"/><path d="m8 9.005v30l-6.979 6.95v-36.95z" fill="#545c66"/><path d="m4.03 8.002c-.553 0-1.005-.447-1.005-1s.442-1 .994-1h.011c.552 0 1 .447 1 1s-.448 1-1 1z" fill="#ccd1d9"/><path d="m7.03 8.002c-.553 0-1.005-.447-1.005-1s.442-1 .994-1h.011c.552 0 1 .447 1 1s-.448 1-1 1z" fill="#ccd1d9"/><path d="m10.03 8.002c-.553 0-1.005-.447-1.005-1s.442-1 .994-1h.011c.552 0 1 .447 1 1s-.448 1-1 1z" fill="#ccd1d9"/><g fill="#ed5565"><path d="m20.003 20.002c-.553 0-1-.447-1-1v-2c0-.553.447-1 1-1s1 .447 1 1v2c0 .553-.447 1-1 1z"/><path d="m22.003 22.002c-1.654 0-3-1.346-3-3 0-.553.447-1 1-1s1 .447 1 1c0 .552.448 1 1 1 .553 0 1 .447 1 1s-.447 1-1 1z"/><path d="m23.104 22.002h-1.101c-.553 0-1-.447-1-1s.447-1 1-1h1.101c.553 0 1 .447 1 1s-.448 1-1 1z"/><path d="m34.001 20.002c-.553 0-1-.447-1-1v-2c0-.553.447-1 1-1s1 .447 1 1v2c0 .553-.447 1-1 1z"/><path d="m32.001 22.002c-.553 0-1-.447-1-1s.447-1 1-1c.552 0 1-.448 1-1 0-.553.447-1 1-1s1 .447 1 1c0 1.654-1.346 3-3 3z"/><path d="m32.001 22.002h-1.101c-.553 0-1-.447-1-1s.447-1 1-1h1.101c.553 0 1 .447 1 1s-.447 1-1 1z"/></g><path d="m47.003 50.004c-.256 0-.512-.098-.707-.293-.391-.391-.391-1.023 0-1.414l1.999-2c.391-.391 1.023-.391 1.414 0s.391 1.023 0 1.414l-1.999 2c-.195.195-.451.293-.707.293z" fill="#da4453"/><path d="m49.002 52.004c-.256 0-.512-.098-.707-.293l-1.999-2c-.391-.391-.391-1.023 0-1.414s1.023-.391 1.414 0l1.999 2c.391.391.391 1.023 0 1.414-.195.195-.451.293-.707.293z" fill="#da4453"/><path d="m59.006 50.004c-.256 0-.512-.098-.707-.293l-1.999-2c-.391-.391-.391-1.023 0-1.414s1.023-.391 1.414 0l1.999 2c.391.391.391 1.023 0 1.414-.195.195-.451.293-.707.293z" fill="#da4453"/><path d="m57.007 52.004c-.256 0-.512-.098-.707-.293-.391-.391-.391-1.023 0-1.414l1.999-2c.391-.391 1.023-.391 1.414 0s.391 1.023 0 1.414l-1.999 2c-.195.195-.451.293-.707.293z" fill="#da4453"/><path d="m52.004 53.004c-.104 0-.211-.017-.316-.052-.523-.174-.807-.74-.632-1.265l1.998-6c.175-.523.738-.808 1.266-.632.523.174.807.74.632 1.265l-1.999 6c-.14.419-.53.684-.949.684z" fill="#da4453"/><path d="m30.01 26.005v.999l-.98 1.001h-2.03-1.999l-1.001-1.001v-.999c-1.21-.92-2-2.37-2-4 0-.34.03-.68.1-1 .461-2.279 2.48-4 4.9-4s4.44 1.721 4.9 4c.069.32.1.66.1 1 0 1.63-.78 3.08-1.99 4z" fill="#e6e9ed"/><path d="m29.032 23.002c-.553 0-1.005-.447-1.005-1s.442-1 .994-1h.011c.552 0 1 .447 1 1s-.448 1-1 1z" fill="#656d78"/><path d="m25.032 23.002c-.553 0-1.005-.447-1.005-1s.442-1 .994-1h.011c.552 0 1 .447 1 1s-.448 1-1 1z" fill="#656d78"/><path d="m26.002 28.003v-.001z" fill="#ccd1d9"/><path d="m27.002 27.003c-.553 0-1 .447-1 .999 0 .001.001.002.001.003h.997 1.001c0-.001.001-.002.001-.003 0-.552-.447-.999-1-.999z" fill="#ccd1d9"/><path d="m28.002 28.002v.001z" fill="#ccd1d9"/><circle cx="25.002" cy="27.003" fill="#e6e9ed" r="1"/><circle cx="29.029" cy="27.003" fill="#e6e9ed" r="1"/><path d="m28.002 41.004c-.002.552-.448.998-1 .998s-.998-.446-1-.998h-2.627v1.995h7.25v-1.995z" fill="#e6e9ed"/><path d="m28.001 34.005c0-.001.001-.002.001-.003v-1c0-.553-.447-1-1-1s-1 .447-1 1v1c0 .001.001.002.001.003z" fill="#f5f7fa"/><path d="m14.07 46.005c-.55 0-1.45 0-2 0h-10.049c-.55 0-1 .45-1 1v.99c0 .55.45 1 1 1h7.05 2 3.929c.55 0 1-.45 1-1v-.99c0-.55-.45-1-1-1z" fill="#ed5565"/><path d="m15 46.005h-.93-1l-3 2.99h1 3.93c.55 0 1-.45 1-1v-.99c0-.55-.45-1-1-1z" fill="#e6e9ed"/></svg>