<svg id="icons" enable-background="new 0 0 64 64" height="512" viewBox="0 0 64 64" width="512" xmlns="http://www.w3.org/2000/svg"><path d="m62.98 16.005h-23l2-2-2-2h21c1.1 0 2 .899 2 2z" fill="#aab2bd"/><path d="m62.99 16.005v34.991l-1.001.999h-22.009v-.03l2-2-1.99-1.99 1.99-2-2-2 2-2-1.99-1.991 1.99-2-2-2 2-2-2-2 2-2-2-1.989 2-2-2-2 2-2-1.99-1.99 1.99-2-2-2h23z" fill="#656d78"/><path d="m4.01 16.005h-2.98-.02v-2c0-1.101.891-2 2-2h18.97l1.989 2-1.989 2h-.01z" fill="#aab2bd"/><path d="m4.01 16.005v35.99h-1.981l-.999-.999v-34.991z" fill="#545c66"/><path d="m22.01 44.015 1.96 1.96-1.99 2 1.99 1.99-2 2v.03h-17.96v-35.99h17.96.01l1.99 2-1.99 1.99-.01.01h.02l1.98 1.99-1.99 2 .01.01 1.98 1.99-1.99 2 .01.01 1.98 1.979-1.99 2 .02.021 1.97 1.979-1.99 2 1.99 2-1.99 1.991.02.03 1.97 1.97-1.99 2z" fill="#656d78"/><g fill="#ccd1d9"><path d="m4.038 15.005c-.553 0-1.005-.447-1.005-1s.442-1 .994-1h.011c.552 0 1 .447 1 1s-.448 1-1 1z"/><path d="m7.038 15.005c-.553 0-1.005-.447-1.005-1s.442-1 .994-1h.011c.552 0 1 .447 1 1s-.448 1-1 1z"/><path d="m10.038 15.005c-.553 0-1.005-.447-1.005-1s.442-1 .994-1h.011c.552 0 1 .447 1 1s-.448 1-1 1z"/></g><path d="m22.975 19.001h-14.963c-.553 0-1 .447-1 1s.447 1 1 1h14.968l-.99-.996h-.02l.011-.01z" fill="#5d9cec"/><path d="m10.012 23.001c-.553 0-1 .447-1 1s.447 1 1 1h12.968l-.99-.996-.01-.01.989-.994z" fill="#a0d468"/><path d="m14.012 49.001h-6c-.553 0-1-.447-1-1s.447-1 1-1h6c.553 0 1 .447 1 1s-.448 1-1 1z" fill="#5d9cec"/><path d="m16.012 29.001h-4c-.553 0-1-.447-1-1s.447-1 1-1h4c.553 0 1 .447 1 1s-.448 1-1 1z" fill="#ed5565"/><path d="m20.012 27.001c-.553 0-1 .447-1 1s.447 1 1 1h2.975l-.996-.996-.01-.01.989-.994z" fill="#ed5565"/><path d="m12.012 31.001c-.553 0-1 .447-1 1s.447 1 1 1h10.979l-.991-.996-.02-.021.979-.983z" fill="#ffce54"/><path d="m21.98 35.984.979-.983h-10.947c-.553 0-1 .447-1 1s.447 1 1 1h10.979z" fill="#ffce54"/><path d="m10.01 43.009c-.553 0-1 .447-1 1s.447 1 1 1h12.994l-.994-.994-.029-.04.961-.966z" fill="#a0d468"/><path d="m19.012 39.001c-.553 0-1 .447-1 1s.447 1 1 1h3.984l-.996-.996-.02-.03.973-.974z" fill="#ed5565"/><path d="m15.012 41.001h-3c-.553 0-1-.447-1-1s.447-1 1-1h3c.553 0 1 .447 1 1s-.448 1-1 1z" fill="#ed5565"/><path d="m44.018 20.001c0-.553-.447-1-1-1h-2.028l-.999 1.004.996.996h2.031c.552 0 1-.447 1-1z" fill="#5d9cec"/><path d="m46.016 24.001c0-.553-.447-1-1-1h-4.041l-.994.994 1.006 1.006h4.029c.552 0 1-.447 1-1z" fill="#a0d468"/><path d="m51.016 25.001h-2c-.553 0-1-.447-1-1s.447-1 1-1h2c.553 0 1 .447 1 1s-.448 1-1 1z" fill="#a0d468"/><path d="m57.016 28.001c0-.553-.447-1-1-1h-15.041l-.994.994 1.012 1.006h15.023c.552 0 1-.447 1-1z" fill="#ed5565"/><path d="m51.016 32.001c0-.553-.447-1-1-1h-9.052l-.983.983 1.017 1.017h9.019c.551 0 .999-.447.999-1z" fill="#ffce54"/><path d="m50.025 44.009c0-.553-.447-1-1-1h-8.079l-.966.966 1.034 1.034h8.011c.553 0 1-.447 1-1z" fill="#a0d468"/><path d="m53.018 40.001c0-.553-.447-1-1-1h-11.049l-.979.983 1.017 1.017h11.011c.552 0 1-.447 1-1z" fill="#ed5565"/><path d="m58.016 33.001h-4c-.553 0-1-.447-1-1s.447-1 1-1h4c.553 0 1 .447 1 1s-.448 1-1 1z" fill="#ffce54"/><circle cx="31.98" cy="32.005" fill="#ed5565" r="6"/><path d="m31.979 33.001c-.553 0-1-.447-1-1v-2.345c0-.553.447-1 1-1s1 .447 1 1v2.345c0 .553-.448 1-1 1z" fill="#da4453"/><path d="m32.009 35.485c-.553 0-1.005-.447-1.005-1s.442-1 .994-1h.011c.552 0 1 .447 1 1s-.448 1-1 1z" fill="#da4453"/><circle cx="2.03" cy="50.995" fill="#545c66" r="1"/><circle cx="61.99" cy="50.995" fill="#656d78" r="1"/></svg>