<svg id="icons" enable-background="new 0 0 64 64" height="512" viewBox="0 0 64 64" width="512" xmlns="http://www.w3.org/2000/svg"><path d="m31.961 9.5c2.209 0 4 1.8 4 4 0 2.21-1.791 4-4 4-2.201 0-4-1.79-4-4 0-2.2 1.799-4 4-4z" fill="#5d9cec"/><path d="m31.961 6.5c4.84 0 9 2.87 10.9 7-1.9 4.13-6.061 7-10.9 7-4.83 0-9-2.87-10.891-7 1.891-4.13 6.061-7 10.891-7zm4 7c0-2.2-1.791-4-4-4-2.201 0-4 1.8-4 4 0 2.21 1.799 4 4 4 2.209 0 4-1.79 4-4z" fill="#e6e9ed"/><path d="m16.98 29.52v27.98h-1.98l-1-1.001v-6.979-20z" fill="#545c66"/><path d="m49.93 29.52h-32.95-2.98-.02v-2c0-1.109.891-2 2-2h31.95c1.111 0 2 .891 2 2z" fill="#aab2bd"/><path d="m49.951 41.51v14.99l-.987 1h-31.984v-27.98h32.95.021z" fill="#656d78"/><g fill="#ccd1d9"><path d="m17.009 28.517c-.553 0-1.005-.447-1.005-1s.442-1 .994-1h.011c.552 0 1 .447 1 1s-.448 1-1 1z"/><path d="m20.009 28.517c-.553 0-1.005-.447-1.005-1s.442-1 .994-1h.011c.552 0 1 .447 1 1s-.448 1-1 1z"/><path d="m23.009 28.517c-.553 0-1.005-.447-1.005-1s.442-1 .994-1h.011c.552 0 1 .447 1 1s-.448 1-1 1z"/></g><path d="m30.977 34.513h-9.994c-.553 0-1-.447-1-1s.447-1 1-1h9.994c.553 0 1 .447 1 1s-.448 1-1 1z" fill="#5d9cec"/><path d="m33.977 38.513h-10.995c-.553 0-1-.447-1-1s.447-1 1-1h10.994c.553 0 1 .447 1 1s-.447 1-.999 1z" fill="#a0d468"/><path d="m30.982 50.517h-8c-.553 0-1-.447-1-1s.447-1 1-1h8c.553 0 1 .447 1 1s-.447 1-1 1z" fill="#a0d468"/><path d="m39.977 38.513h-2c-.553 0-1-.447-1-1s.447-1 1-1h2c.553 0 1 .447 1 1s-.448 1-1 1z" fill="#a0d468"/><path d="m25.982 54.505h-5c-.553 0-1-.447-1-1s.447-1 1-1h5c.553 0 1 .447 1 1s-.447 1-1 1z" fill="#5d9cec"/><path d="m27.982 42.513h-3c-.553 0-1-.447-1-1s.447-1 1-1h3c.553 0 1 .447 1 1s-.447 1-1 1z" fill="#ed5565"/><path d="m43.977 42.513h-11.995c-.553 0-1-.447-1-1s.447-1 1-1h11.994c.553 0 1 .447 1 1s-.447 1-.999 1z" fill="#ed5565"/><path d="m38.977 46.513h-13.995c-.553 0-1-.447-1-1s.447-1 1-1h13.994c.553 0 1 .447 1 1s-.447 1-.999 1z" fill="#ffce54"/><path d="m45.977 46.513h-3c-.553 0-1-.447-1-1s.447-1 1-1h3c.553 0 1 .447 1 1s-.448 1-1 1z" fill="#ffce54"/><path d="m52.963 42.515-3.998-.001c-.553 0-1-.448-1-1 0-.553.448-1 1-1l3.998.001c.553 0 1 .448 1 1s-.448 1-1 1z" fill="#da4453"/><path d="m10.998 50.518c-.552 0-1-.447-1-1 0-.552.447-1 1-1l3.998-.001c.552 0 1 .447 1 1 0 .552-.447 1-1 1z" fill="#da4453"/><circle cx="6" cy="49.518" fill="#ed5565" r="6"/><path d="m5.998 50.514c-.553 0-1-.447-1-1v-2.345c0-.553.447-1 1-1s1 .447 1 1v2.345c0 .552-.447 1-1 1z" fill="#da4453"/><path d="m6.028 52.998c-.553 0-1.005-.447-1.005-1s.442-1 .994-1h.011c.552 0 1 .447 1 1s-.448 1-1 1z" fill="#da4453"/><circle cx="57.98" cy="41.514" fill="#ed5565" r="6"/><path d="m57.979 42.51c-.553 0-1-.447-1-1v-2.345c0-.553.447-1 1-1s1 .447 1 1v2.345c0 .553-.448 1-1 1z" fill="#da4453"/><path d="m58.009 44.994c-.553 0-1.005-.447-1.005-1s.442-1 .994-1h.011c.552 0 1 .447 1 1s-.448 1-1 1z" fill="#da4453"/><circle cx="15" cy="56.5" fill="#545c66" r="1"/><circle cx="48.964" cy="56.5" fill="#656d78" r="1"/></svg>