<svg id="icons" enable-background="new 0 0 64 64" height="512" viewBox="0 0 64 64" width="512" xmlns="http://www.w3.org/2000/svg"><path d="m50.99 42.015v10.981l-1.02.999h-45.96v-39.99h46.961v11.99h-17.825v16.01h17.844z" fill="#656d78"/><path d="m12.004 25.999h22.008v16.006h-22.008z" fill="#545c66"/><path d="m62 25.995c.55 0 1 .45 1 1v14.01c0 .55-.45 1-1 1h-10.01c-.55 0-1.45 0-2 0h-16.98c-.55 0-1-.45-1-1v-14.01c0-.55.45-1 1-1h16.96 2z" fill="#e6e9ed"/><path d="m50.97 12.005v2h-49.95-.02v-2c0-1.11.9-2 2-2h45.97c1.11 0 2 .89 2 2z" fill="#aab2bd"/><path d="m4.01 14.005h-3v38.991l1 .999h2z" fill="#545c66"/><g fill="#ccd1d9"><path d="m4.03 13.003c-.553 0-1.005-.447-1.005-1s.442-1 .994-1h.011c.552 0 1 .447 1 1s-.448 1-1 1z"/><path d="m7.03 13.003c-.553 0-1.005-.447-1.005-1s.442-1 .994-1h.011c.552 0 1 .447 1 1s-.448 1-1 1z"/><path d="m10.03 13.003c-.553 0-1.005-.447-1.005-1s.442-1 .994-1h.011c.552 0 1 .447 1 1s-.448 1-1 1z"/></g><path d="m27.006 18.999h-19.002c-.553 0-1-.447-1-1s.447-1 1-1h19.002c.553 0 1 .447 1 1s-.447 1-1 1z" fill="#5d9cec"/><path d="m30.006 22.999h-20.002c-.553 0-1-.447-1-1s.447-1 1-1h20.002c.553 0 1 .447 1 1s-.447 1-1 1z" fill="#a0d468"/><path d="m24.008 47.015h-14.004c-.553 0-1-.447-1-1s.447-1 1-1h14.004c.553 0 1 .447 1 1s-.447 1-1 1z" fill="#a0d468"/><path d="m36.006 22.999h-2c-.553 0-1-.447-1-1s.447-1 1-1h2c.553 0 1 .447 1 1s-.447 1-1 1z" fill="#a0d468"/><path d="m14.004 51.003h-6c-.553 0-1-.447-1-1s.447-1 1-1h6c.553 0 1 .447 1 1s-.447 1-1 1z" fill="#5d9cec"/><path d="m59.014 30.999h-23.002c-.553 0-1-.447-1-1s.447-1 1-1h23.002c.553 0 1 .447 1 1s-.448 1-1 1z" fill="#ed5565"/><path d="m51.016 34.999h-13.002c-.553 0-1-.447-1-1s.447-1 1-1h13.002c.553 0 1 .447 1 1s-.448 1-1 1z" fill="#ffce54"/><path d="m53.008 38.999h-9.995c-.553 0-1-.447-1-1s.447-1 1-1h9.995c.553 0 1 .447 1 1s-.447 1-1 1z" fill="#ed5565"/><path d="m39.013 38.999h-3.001c-.553 0-1-.447-1-1s.447-1 1-1h3.001c.553 0 1 .447 1 1s-.448 1-1 1z" fill="#ed5565"/><path d="m24 34.997h-3.998c-.553 0-1-.447-1-1s.447-1 1-1h3.998c.553 0 1 .447 1 1s-.447 1-1 1z" fill="#aab2bd"/><path d="m22 36.996c-.553 0-1-.447-1-1v-3.998c0-.553.447-1 1-1s1 .447 1 1v3.998c0 .553-.447 1-1 1z" fill="#aab2bd"/><circle cx="2.01" cy="52.995" fill="#545c66" r="1"/><circle cx="49.97" cy="52.995" fill="#656d78" r="1"/></svg>