<svg id="icons" enable-background="new 0 0 64 64" height="512" viewBox="0 0 64 64" width="512" xmlns="http://www.w3.org/2000/svg"><path d="m4 10v36h-2.001l-.999-1.001v-34.999z" fill="#545c66"/><path d="m58 52.22c-1.72 1.13-3.78 1.78-6 1.78s-4.271-.65-6-1.78c-3.01-1.97-5-5.359-5-9.22v3 1c0 3.86 1.99 7.25 5 9.22 1.729 1.13 3.78 1.78 6 1.78s4.28-.65 6-1.78c3.01-1.96 5-5.359 5-9.22v-4c0 3.86-1.99 7.26-5 9.22z" fill="#f6bb42"/><path d="m52.01 32c6.08.01 10.99 4.93 10.99 11 0 3.86-1.99 7.26-5 9.22-1.72 1.13-3.78 1.78-6 1.78s-4.271-.65-6-1.78c-3.01-1.97-5-5.359-5-9.22 0-6.07 4.93-11 11-11z" fill="#ffce54"/><path d="m52.01 8v2h-48.01-3v-2c0-1.11.899-2 2-2h47.01c1.11 0 2 .89 2 2z" fill="#aab2bd"/><path d="m41 43v3h-37v-36h48.01v22h-.01c-6.07 0-11 4.93-11 11z" fill="#656d78"/><path d="m4.03 9c-.552 0-1.005-.447-1.005-1s.443-1 .995-1h.01c.552 0 1 .447 1 1s-.448 1-1 1z" fill="#ccd1d9"/><path d="m7.03 9c-.552 0-1.005-.447-1.005-1s.443-1 .995-1h.01c.552 0 1 .447 1 1s-.448 1-1 1z" fill="#ccd1d9"/><path d="m10.03 9c-.552 0-1.005-.447-1.005-1s.442-1 .994-1h.011c.552 0 1 .447 1 1s-.448 1-1 1z" fill="#ccd1d9"/><path d="m25 15h-17c-.553 0-1-.447-1-1s.447-1 1-1h17c.553 0 1 .447 1 1s-.447 1-1 1z" fill="#5d9cec"/><path d="m21 19h-11c-.553 0-1-.447-1-1s.447-1 1-1h11c.553 0 1 .447 1 1s-.447 1-1 1z" fill="#a0d468"/><path d="m20 39.012h-10c-.553 0-1-.447-1-1s.447-1 1-1h10c.553 0 1 .447 1 1s-.447 1-1 1z" fill="#a0d468"/><path d="m33.006 19h-8.006c-.553 0-1-.447-1-1s.447-1 1-1h8.006c.553 0 1 .447 1 1s-.447 1-1 1z" fill="#a0d468"/><path d="m14 43h-6c-.553 0-1-.447-1-1s.447-1 1-1h6c.553 0 1 .447 1 1s-.447 1-1 1z" fill="#5d9cec"/><path d="m16 23h-4c-.553 0-1-.447-1-1s.447-1 1-1h4c.553 0 1 .447 1 1s-.447 1-1 1z" fill="#ed5565"/><path d="m43.013 23h-23.013c-.553 0-1-.447-1-1s.447-1 1-1h23.013c.553 0 1 .447 1 1s-.448 1-1 1z" fill="#ed5565"/><path d="m36.007 27h-24.007c-.553 0-1-.447-1-1s.447-1 1-1h24.007c.553 0 1 .447 1 1s-.447 1-1 1z" fill="#ffce54"/><path d="m23 31h-11c-.553 0-1-.447-1-1s.447-1 1-1h11c.553 0 1 .447 1 1s-.447 1-1 1z" fill="#ffce54"/><path d="m34.006 35h-16.006c-.553 0-1-.447-1-1s.447-1 1-1h16.006c.553 0 1 .447 1 1s-.447 1-1 1z" fill="#ed5565"/><path d="m14 35h-2c-.553 0-1-.447-1-1s.447-1 1-1h2c.553 0 1 .447 1 1s-.447 1-1 1z" fill="#ed5565"/><g fill="#edab37"><path d="m51 53.95v4c.33.03.662.05 1 .05s.67-.02 1-.05v-4c-.33.03-.662.05-1 .05s-.67-.02-1-.05z"/><path d="m58.001 56.219c.732-.477 1.402-1.042 2-1.676v-4c-.598.634-1.268 1.199-2 1.676z"/><path d="m43.999 54.539c.598.634 1.268 1.2 2 1.68v-4c-.732-.479-1.402-1.046-2-1.68z"/><path d="m52 48.001c-.553 0-1-.447-1-1v-8.002c0-.553.447-1 1-1s1 .447 1 1v8.002c0 .553-.447 1-1 1z"/></g><circle cx="2" cy="45" fill="#545c66" r="1"/></svg>