<svg id="icons" enable-background="new 0 0 64 64" height="512" viewBox="0 0 64 64" width="512" xmlns="http://www.w3.org/2000/svg"><path d="m1 8.5v49.998l.999 1.002h3.001v-.01-8.98-1.01c0-1.11.89-2 2-2h12c1.1 0 2 .89 2 2v1.01 8.98.01h3v-.01-8.98-1.01c0-1.11.89-2 2-2h12c1.1 0 2 .89 2 2v1.01 8.98.01h3v-.01-8.98-1.01c0-1.11.89-2 2-2h12c1.1 0 2 .89 2 2v1.01 8.98.01h3l1-1.001v-49.999z" fill="#e6e9ed"/><path d="m5 50.51h16v8.98.01h-16v-.01z" fill="#656d78"/><path d="m21 50.51h-16v-1.01c0-1.11.89-2 2-2h12c1.1 0 2 .89 2 2z" fill="#aab2bd"/><path d="m40 49.5v1.01h-16v-1.01c0-1.11.89-2 2-2h12c1.1 0 2 .89 2 2z" fill="#aab2bd"/><path d="m59 50.51h-16v-1.01c0-1.11.89-2 2-2h12c1.1 0 2 .89 2 2z" fill="#aab2bd"/><path d="m24 50.51h16v8.98.01h-16v-.01z" fill="#656d78"/><path d="m43 50.51h16v8.98.01h-16v-.01z" fill="#656d78"/><path d="m58 33.499c.55 0 1 .45 1 1v2.001c0 .55-.45 1-1 1h-14c-.55 0-1-.45-1-1v-2.001c0-.55.45-1 1-1z" fill="#5d9cec"/><path d="m63 8.5h-62v-2c0-1.11.89-2 2-2h58c1.1 0 2 .89 2 2z" fill="#ccd1d9"/><path d="m39 14.499c.55 0 1 .45 1 1v27.001c0 .55-.45 1-1 1h-33c-.55 0-1-.45-1-1v-27.001c0-.55.45-1 1-1z" fill="#656d78"/><g fill="#e6e9ed"><path d="m4.03 7.498c-.553 0-1.005-.447-1.005-1s.442-1 .994-1h.011c.552 0 1 .447 1 1s-.448 1-1 1z"/><path d="m7.029 7.498c-.553 0-1.005-.447-1.005-1s.442-1 .994-1h.011c.552 0 1 .447 1 1s-.448 1-1 1z"/><path d="m10.032 7.498c-.553 0-1.005-.447-1.005-1s.442-1 .994-1h.011c.552 0 1 .447 1 1s-.448 1-1 1z"/></g><path d="m58.999 22.502h-14.998c-.553 0-1-.447-1-1s.447-1 1-1h14.998c.553 0 1 .447 1 1s-.447 1-1 1z" fill="#ccd1d9"/><path d="m58.999 19.502h-14.998c-.553 0-1-.447-1-1s.447-1 1-1h14.998c.553 0 1 .447 1 1s-.447 1-1 1z" fill="#ccd1d9"/><path d="m50.991 25.502h-6.99c-.553 0-1-.447-1-1s.447-1 1-1h6.99c.553 0 1 .447 1 1s-.447 1-1 1z" fill="#ccd1d9"/><path d="m50.991 30.5h-6.99c-.553 0-1-.447-1-1s.447-1 1-1h6.99c.553 0 1 .447 1 1s-.447 1-1 1z" fill="#656d78"/><path d="m55 29.502h-.999c-.553 0-1-.447-1-1s.447-1 1-1h.999c.553 0 1 .447 1 1s-.447 1-1 1z" fill="#a0d468"/><path d="m55.001 31.5c-.367 0-.72-.202-.896-.553l-.999-1.998c-.247-.494-.047-1.095.447-1.342.494-.246 1.095-.047 1.342.447l.999 1.998c.247.494.047 1.095-.447 1.342-.143.072-.296.106-.446.106z" fill="#a0d468"/><path d="m55 31.5h-.999c-.553 0-1-.447-1-1s.447-1 1-1h.999c.553 0 1 .447 1 1s-.447 1-1 1z" fill="#a0d468"/><path d="m18.994 20.502h-9.994c-.553 0-1-.447-1-1s.447-1 1-1h9.994c.553 0 1 .447 1 1s-.447 1-1 1z" fill="#5d9cec"/><path d="m21.994 24.502h-10.994c-.553 0-1-.447-1-1s.447-1 1-1h10.994c.553 0 1 .447 1 1s-.447 1-1 1z" fill="#a0d468"/><path d="m19 36.506h-8c-.553 0-1-.447-1-1s.447-1 1-1h8c.553 0 1 .447 1 1s-.447 1-1 1z" fill="#a0d468"/><path d="m27.994 24.502h-2c-.553 0-1-.447-1-1s.447-1 1-1h2c.553 0 1 .447 1 1s-.447 1-1 1z" fill="#a0d468"/><path d="m14 40.494h-5c-.553 0-1-.447-1-1s.447-1 1-1h5c.553 0 1 .447 1 1s-.447 1-1 1z" fill="#5d9cec"/><path d="m16 28.502h-3c-.553 0-1-.447-1-1s.447-1 1-1h3c.553 0 1 .447 1 1s-.447 1-1 1z" fill="#ffce54"/><path d="m31.994 28.502h-11.994c-.553 0-1-.447-1-1s.447-1 1-1h11.994c.553 0 1 .447 1 1s-.447 1-1 1z" fill="#ffce54"/><path d="m26.994 32.502h-13.994c-.553 0-1-.447-1-1s.447-1 1-1h13.994c.553 0 1 .447 1 1s-.447 1-1 1z" fill="#ed5565"/><path d="m33.994 32.502h-3c-.553 0-1-.447-1-1s.447-1 1-1h3c.553 0 1 .447 1 1s-.447 1-1 1z" fill="#ed5565"/><path d="m12.001 54.498h-4.001c-.553 0-1-.447-1-1s.447-1 1-1h4.001c.553 0 1 .447 1 1s-.447 1-1 1z" fill="#5d9cec"/><path d="m15 57.498h-6c-.553 0-1-.447-1-1s.447-1 1-1h6c.553 0 1 .447 1 1s-.447 1-1 1z" fill="#a0d468"/><path d="m30 54.498h-3c-.553 0-1-.447-1-1s.447-1 1-1h3c.553 0 1 .447 1 1s-.447 1-1 1z" fill="#ed5565"/><path d="m35.001 57.498h-7.001c-.553 0-1-.447-1-1s.447-1 1-1h7.001c.553 0 1 .447 1 1s-.447 1-1 1z" fill="#f6bb42"/><path d="m50.001 54.498h-4.001c-.553 0-1-.447-1-1s.447-1 1-1h4.001c.553 0 1 .447 1 1s-.447 1-1 1z" fill="#5d9cec"/><path d="m53 57.498h-6c-.553 0-1-.447-1-1s.447-1 1-1h6c.553 0 1 .447 1 1s-.447 1-1 1z" fill="#a0d468"/><path d="m7 12.5h31c1.1 0 2 .89 2 2v1h-35v-1c0-1.11.89-2 2-2z" fill="#aab2bd"/><circle cx="2" cy="58.498" fill="#e6e9ed" r="1"/><circle cx="62" cy="58.5" fill="#e6e9ed" r="1"/></svg>