<svg id="icons" enable-background="new 0 0 64 64" height="512" viewBox="0 0 64 64" width="512" xmlns="http://www.w3.org/2000/svg"><path d="m63 59.992c0 .551-.45 1-1 1h-28c-.55 0-1-.449-1-1v-15.99c0-.549.45-1 1-1h28c.55 0 1 .451 1 1z" fill="#8cc152"/><path d="m63 58.998c0 .551-.45 1-1 1h-28c-.55 0-1-.449-1-1v-15.99c0-.549.45-1 1-1h28c.55 0 1 .451 1 1z" fill="#a0d468"/><path d="m63 57.998c0 .549-.45 1-1 1h-28c-.55 0-1-.451-1-1v-15.99c0-.551.45-1 1-1h28c.55 0 1 .449 1 1z" fill="#8cc152"/><path d="m63 56.998c0 .551-.45 1-1 1h-28c-.55 0-1-.449-1-1v-15.99c0-.549.45-1 1-1h28c.55 0 1 .451 1 1z" fill="#a0d468"/><path d="m63 55.998c0 .549-.45 1-1 1h-28c-.55 0-1-.451-1-1v-15.99c0-.551.45-1 1-1h28c.55 0 1 .449 1 1z" fill="#8cc152"/><path d="m63 54.998c0 .551-.45 1-1 1h-28c-.55 0-1-.449-1-1v-15.99c0-.549.45-1 1-1h28c.55 0 1 .451 1 1z" fill="#a0d468"/><path d="m63 53.998c0 .549-.45 1-1 1h-28c-.55 0-1-.451-1-1v-15.99c0-.551.45-1 1-1h28c.55 0 1 .449 1 1z" fill="#8cc152"/><path d="m63 52.998c0 .551-.45 1-1 1h-28c-.55 0-1-.449-1-1v-15.99c0-.549.45-1 1-1h28c.55 0 1 .451 1 1z" fill="#a0d468"/><path d="m63 51.998c0 .549-.45 1-1 1h-28c-.55 0-1-.451-1-1v-15.99c0-.551.45-1 1-1h28c.55 0 1 .449 1 1z" fill="#8cc152"/><path d="m63 50.998c0 .549-.45 1-1 1h-28c-.55 0-1-.451-1-1v-15.99c0-.551.45-1 1-1h28c.55 0 1 .449 1 1z" fill="#a0d468"/><path d="m36 34.008h-2c-.55 0-1 .449-1 1v1.99c1.65 0 2.99-1.33 3-2.99z" fill="#8cc152"/><path d="m62.99 36.998v-2.039c-.026-.525-.457-.951-.99-.951h-2c.01 1.66 1.34 2.99 2.99 2.99z" fill="#8cc152"/><path d="m60 51.992h2.024c.521-.014.939-.428.966-.947v-2.043c-1.66.01-2.99 1.34-2.99 2.99z" fill="#8cc152"/><path d="m33 48.998v2c0 .549.45 1 1 1h2c0-1.66-1.34-3-3-3z" fill="#8cc152"/><path d="m31.99 5.008v1.01h-30.99v-1.01c0-1.1.89-2 2-2h26.99c1.11 0 2 .9 2 2z" fill="#aab2bd"/><path d="m31.99 6.018v22.99l-1 1h-28.99l-1-1v-22.99z" fill="#656d78"/><path d="m48 38.998c2.2 0 3.99 1.789 3.99 4 0 2.209-1.79 4-3.99 4-2.21 0-4-1.791-4-4 0-2.211 1.79-4 4-4z" fill="#8cc152"/><path d="m14.993 11.018h-9.994c-.553 0-1-.447-1-1s.447-1 1-1h9.994c.553 0 1 .447 1 1s-.447 1-1 1z" fill="#5d9cec"/><path d="m16.993 15.018h-9.994c-.553 0-1-.447-1-1s.447-1 1-1h9.994c.553 0 1 .447 1 1s-.447 1-1 1z" fill="#a0d468"/><path d="m14.999 23.018h-8c-.553 0-1-.447-1-1s.447-1 1-1h8c.553 0 1 .447 1 1s-.447 1-1 1z" fill="#a0d468"/><path d="m21.991 15.018h-.998c-.553 0-1-.447-1-1s.447-1 1-1h.998c.553 0 1 .447 1 1s-.447 1-1 1z" fill="#a0d468"/><path d="m9.999 27.006h-5c-.553 0-1-.447-1-1s.447-1 1-1h5c.553 0 1 .447 1 1s-.447 1-1 1z" fill="#5d9cec"/><path d="m20.991 19.014h-11.992c-.553 0-1-.447-1-1s.447-1 1-1h11.992c.553 0 1 .447 1 1s-.447 1-1 1z" fill="#ed5565"/><path d="m27.991 19.014h-3c-.553 0-1-.447-1-1s.447-1 1-1h3c.553 0 1 .447 1 1s-.447 1-1 1z" fill="#ed5565"/><g fill="#e6e9ed"><path d="m47.998 32c-.553 0-1-.447-1-1v-14.998c0-.553.447-1 1-1s1 .447 1 1v14.998c0 .553-.447 1-1 1z"/><path d="m47.998 17.002h-12.998c-.553 0-1-.447-1-1s.447-1 1-1h12.998c.553 0 1 .447 1 1s-.447 1-1 1z"/><path d="m37 19.004c-.256 0-.512-.098-.707-.293l-2-2.002c-.391-.391-.391-1.023 0-1.414s1.023-.391 1.414 0l2 2.002c.391.391.391 1.025 0 1.414-.195.195-.451.293-.707.293z"/><path d="m35 17.002c-.256 0-.512-.098-.707-.293-.391-.391-.391-1.023 0-1.414l2-1.998c.391-.391 1.023-.391 1.414 0s.391 1.025 0 1.414l-2 1.998c-.195.195-.451.293-.707.293z"/><path d="m16.994 49.004c-.553 0-1-.447-1-1v-14.998c0-.553.447-1 1-1s1 .447 1 1v14.998c0 .553-.447 1-1 1z"/><path d="m29.992 49.004h-12.998c-.553 0-1-.447-1-1s.447-1 1-1h12.998c.553 0 1 .447 1 1s-.447 1-1 1z"/><path d="m29.992 49.004c-.256 0-.512-.098-.707-.293l-2-2c-.391-.391-.391-1.023 0-1.414s1.023-.391 1.414 0l2 2c.391.391.391 1.023 0 1.414-.195.195-.451.293-.707.293z"/><path d="m27.992 51.004c-.256 0-.512-.098-.707-.293-.391-.391-.391-1.023 0-1.414l2-2c.391-.391 1.023-.391 1.414 0s.391 1.023 0 1.414l-2 2c-.195.195-.451.293-.707.293z"/></g><circle cx="2" cy="29.008" fill="#656d78" r="1"/><circle cx="30.99" cy="29.008" fill="#656d78" r="1"/></svg>