<svg id="icons" enable-background="new 0 0 64 64" height="512" viewBox="0 0 64 64" width="512" xmlns="http://www.w3.org/2000/svg"><path d="m23 52 6 8h-18c-.55 0-1-.45-1-1v-7c0-4.42 3.58-8 8-8h5l-2 2 4 4z" fill="#545c66"/><path d="m28.89 52 3.11 8h-3l-6-8 2-2-4-4 2-2 2-2 1.56 4z" fill="#656d78"/><path d="m35 44.65-3-1.65-3 1.65-2.44 1.35-1.56-4v-1.999-.01h14v2.009l-1.56 4z" fill="#f5f7fa"/><path d="m35 44.65-2 2.35h-2l-2-2.35 3-1.65z" fill="#ed5565"/><path d="m35.11 52 2.33-6 1.56-4 2 2 2 2-4 4 2 2-6 8h-3z" fill="#656d78"/><path d="m37.44 46-2.33 6-2.11-5 2-2.35z" fill="#e6e9ed"/><path d="m29 44.65 2 2.35-2.11 5-2.33-6z" fill="#e6e9ed"/><path d="m33 47 2.11 5-3.11 8-3.11-8 2.11-5z" fill="#da4453"/><path d="m54 52v7c0 .55-.45 1-1 1h-18l6-8-2-2 4-4-2-2h5c4.42 0 8 3.58 8 8z" fill="#545c66"/><path d="m46 44h-3.003c4.42 0 8 3.58 8 8v7c0 .55-.45 1-1 1h3.003c.55 0 1-.45 1-1v-7c0-4.42-3.58-8-8-8z" fill="#434a54"/><path d="m52.99 8h-38.99-3v-2c0-1.1.89-2 2-2h37.99c1.109 0 2 .9 2 2z" fill="#aab2bd"/><path d="m14 8v31.991h-2.001l-.999-1.001v-30.99z" fill="#545c66"/><path d="m52.99 8v30.99l-1.001 1.001h-12.989-14-11v-31.991z" fill="#656d78"/><g fill="#ccd1d9"><path d="m14.025 7.002c-.553 0-1.005-.447-1.005-1s.442-1 .994-1h.011c.552 0 1 .447 1 1s-.448 1-1 1z"/><path d="m17.025 7.002c-.553 0-1.005-.447-1.005-1s.442-1 .994-1h.011c.552 0 1 .447 1 1s-.448 1-1 1z"/><path d="m20.025 7.002c-.553 0-1.005-.447-1.005-1s.442-1 .994-1h.011c.552 0 1 .447 1 1s-.448 1-1 1z"/></g><path d="m38.999 13.002h-21.004c-.553 0-1-.447-1-1s.447-1 1-1h21.004c.553 0 1 .447 1 1s-.447 1-1 1z" fill="#5d9cec"/><path d="m34.999 17.002h-15.004c-.553 0-1-.447-1-1s.447-1 1-1h15.004c.553 0 1 .447 1 1s-.447 1-1 1z" fill="#a0d468"/><path d="m33.999 33.003h-14.004c-.553 0-1-.447-1-1 0-.552.447-1 1-1h14.004c.553 0 1 .448 1 1 0 .553-.447 1-1 1z" fill="#a0d468"/><path d="m40.999 17.002h-2c-.553 0-1-.447-1-1s.447-1 1-1h2c.553 0 1 .447 1 1s-.447 1-1 1z" fill="#a0d468"/><path d="m23.995 36.989h-6c-.553 0-1-.447-1-1s.447-1 1-1h6c.553 0 1 .447 1 1s-.447 1-1 1z" fill="#5d9cec"/><path d="m42.999 24.998h-21.004c-.553 0-1-.447-1-1s.447-1 1-1h21.004c.553 0 1 .447 1 1s-.447 1-1 1z" fill="#ffce54"/><path d="m27.984 20.996h-5.989c-.553 0-1-.447-1-1s.447-1 1-1h5.989c.553 0 1 .447 1 1s-.447 1-1 1z" fill="#ed5565"/><path d="m36.999 28.996h-15.004c-.553 0-1-.447-1-1s.447-1 1-1h15.004c.553 0 1 .447 1 1s-.447 1-1 1z" fill="#ed5565"/><circle cx="12" cy="38.991" fill="#545c66" r="1"/><circle cx="51.99" cy="38.991" fill="#656d78" r="1"/></svg>