<svg id="icons" enable-background="new 0 0 64 64" height="512" viewBox="0 0 64 64" width="512" xmlns="http://www.w3.org/2000/svg"><path d="m31.995.5c4.84 0 9 2.87 10.899 7-1.899 4.13-6.06 7-10.899 7-4.841 0-9-2.87-10.9-7 1.9-4.13 6.059-7 10.9-7zm4 7c0-2.2-1.79-4-4-4-2.2 0-4 1.8-4 4 0 2.21 1.8 4 4 4 2.21 0 4-1.79 4-4z" fill="#e6e9ed"/><path d="m31.995 3.5c2.21 0 4 1.8 4 4 0 2.21-1.79 4-4 4-2.2 0-4-1.79-4-4 0-2.2 1.8-4 4-4z" fill="#5d9cec"/><path d="m41.995 61.5v1h-19.99v-1c0-1.1.89-2 2-2h1 13.99 1c1.109 0 2 .9 2 2z" fill="#e6e9ed"/><path d="m36.995 54.5 2 5h-13.99l2-5z" fill="#ccd1d9"/><path d="m54.995 52.5c0 1.1-.9 2-2 2h-16-9.99-16c-1.101 0-2-.9-2-2v-2h.05 2.94 43z" fill="#e6e9ed"/><path d="m11.995 22.5v28h-2.94-.05v-28h.05z" fill="#545c66"/><path d="m11.995 22.5h43v28h-43z" fill="#656d78"/><path d="m9.055 22.5h-.05v-1.99c0-1.1.899-2 2-2h41.99c1.1 0 2 .9 2 2v1.99h-43z" fill="#aab2bd"/><path d="m52.992 55.503h-41.984c-1.654 0-3-1.346-3-3v-31.991c0-1.654 1.346-3 3-3h41.984c1.654 0 3 1.346 3 3v31.991c0 1.654-1.346 3-3 3zm-41.984-35.991c-.552 0-1 .448-1 1v31.991c0 .552.448 1 1 1h41.984c.552 0 1-.448 1-1v-31.991c0-.552-.448-1-1-1z" fill="#e6e9ed"/><path d="m40.996 63.5h-17.992c-.553 0-1-.447-1-1s.447-1 1-1h17.992c.553 0 1 .447 1 1s-.447 1-1 1z" fill="#e6e9ed"/><g fill="#ccd1d9"><path d="m12.058 21.999c-.553 0-1.005-.447-1.005-1s.442-1 .994-1h.011c.552 0 1 .447 1 1s-.449 1-1 1z"/><path d="m15.058 21.999c-.553 0-1.005-.447-1.005-1s.442-1 .994-1h.011c.552 0 1 .447 1 1s-.449 1-1 1z"/><path d="m18.058 21.999c-.553 0-1.005-.447-1.005-1s.442-1 .994-1h.011c.552 0 1 .447 1 1s-.449 1-1 1z"/></g><path d="m33.005 27.499h-17c-.553 0-1-.447-1-1s.447-1 1-1h17c.553 0 1 .447 1 1s-.447 1-1 1z" fill="#5d9cec"/><path d="m29.005 31.499h-11c-.553 0-1-.447-1-1s.447-1 1-1h11c.553 0 1 .447 1 1s-.447 1-1 1z" fill="#a0d468"/><path d="m28.005 43.503h-10c-.553 0-1-.447-1-1s.447-1 1-1h10c.553 0 1 .447 1 1s-.447 1-1 1z" fill="#a0d468"/><path d="m41.011 31.499h-8.006c-.553 0-1-.447-1-1s.447-1 1-1h8.006c.553 0 1 .447 1 1s-.448 1-1 1z" fill="#a0d468"/><path d="m22.005 47.491h-6c-.553 0-1-.447-1-1s.447-1 1-1h6c.553 0 1 .447 1 1s-.447 1-1 1z" fill="#5d9cec"/><path d="m24.005 35.499h-4c-.553 0-1-.447-1-1s.447-1 1-1h4c.553 0 1 .447 1 1s-.447 1-1 1z" fill="#ed5565"/><path d="m48.015 35.499h-20.01c-.553 0-1-.447-1-1s.447-1 1-1h20.01c.553 0 1 .447 1 1s-.448 1-1 1z" fill="#ed5565"/><path d="m44.012 39.499h-24.007c-.553 0-1-.447-1-1s.447-1 1-1h24.007c.553 0 1 .447 1 1s-.448 1-1 1z" fill="#ffce54"/><path d="m32.03 54.003c-.553 0-1.005-.447-1.005-1s.442-1 .994-1h.011c.552 0 1 .447 1 1s-.448 1-1 1z" fill="#ccd1d9"/></svg>