<svg id="icons" enable-background="new 0 0 64 64" height="512" viewBox="0 0 64 64" width="512" xmlns="http://www.w3.org/2000/svg"><path d="m32 8v13h-5-3c-1.1 0-2 .9-2 2v16c0 1.1.9 2 2 2h8v.02 12.98c0 4.97-4.03 9-9 9-4.65 0-8.48-3.53-8.95-8.05-5.08-.47-9.06-4.75-9.06-9.95 0-.95.13-1.88.39-2.75h-.01c-1.46-1.28-2.38-3.16-2.38-5.26 0-2.39 1.19-4.49 3.01-5.76-1.84-1.461-3.01-3.721-3.01-6.25 0-2.841 1.47-5.33 3.7-6.75-.45-.99-.7-2.101-.7-3.261 0-4.42 3.58-8 8-8 1.46 0 2.83.391 4.01 1.07 0-.01 0-.03 0-.04 0-3.86 3.13-7 7-7s7 3.141 7 7.001z" fill="#ec87c0"/><path d="m46 8.04c1.18-.68 2.55-1.07 4.01-1.07 4.42 0 8 3.58 8 8 0 1.16-.25 2.271-.7 3.261 2.23 1.42 3.7 3.909 3.7 6.75 0 2.529-1.17 4.789-3.01 6.25 1.82 1.27 3.01 3.369 3.01 5.76 0 2.1-.92 3.979-2.38 5.26h-.01c.26.87.39 1.8.39 2.75 0 5.2-3.979 9.48-9.06 9.95-.47 4.519-4.3 8.049-8.95 8.049-4.97 0-9-4.03-9-9v-12.98-.02h8c1.1 0 2-.9 2-2v-2.99-5-5-3.01c0-1.1-.9-2-2-2h-3-5v-13c0-3.86 3.13-7 7-7s7 3.14 7 7z" fill="#ec87c0"/><g fill="#d770ad"><path d="m32 55c-.553 0-1-.447-1-1v-12.987c0-.553.447-1 1-1s1 .447 1 1v12.987c0 .553-.447 1-1 1z"/><path d="m41 64c-5.514 0-10-4.486-10-10 0-.553.447-1 1-1s1 .447 1 1c0 4.411 3.589 8 8 8s8-3.589 8-8-3.589-8-8-8c-.553 0-1-.447-1-1s.447-1 1-1c5.514 0 10 4.486 10 10s-4.486 10-10 10z"/><path d="m49.948 55.947c-.511 0-.946-.389-.995-.907-.051-.55.354-1.037.903-1.089 4.648-.432 8.153-4.283 8.153-8.959 0-2.443-.962-4.729-2.709-6.438-.395-.386-.402-1.02-.016-1.414s1.02-.402 1.414-.016c2.135 2.088 3.311 4.882 3.311 7.867 0 5.715-4.285 10.422-9.968 10.951-.03.004-.062.005-.093.005z"/><path d="m58.629 43.248c-.277 0-.554-.115-.752-.341-.364-.415-.322-1.047.093-1.411 1.299-1.14 2.044-2.784 2.044-4.512 0-1.967-.968-3.813-2.588-4.937-.453-.314-.566-.938-.251-1.392.314-.452.938-.567 1.392-.251 2.158 1.497 3.447 3.957 3.447 6.579 0 2.304-.993 4.496-2.726 6.016-.189.167-.425.249-.659.249z"/><path d="m57.999 32.229c-.294 0-.586-.129-.783-.377-.344-.432-.272-1.061.159-1.405 1.677-1.337 2.639-3.332 2.639-5.474 0-2.402-1.21-4.609-3.237-5.903-.466-.297-.602-.915-.305-1.381s.914-.603 1.381-.305c2.605 1.663 4.161 4.5 4.161 7.589 0 2.754-1.236 5.319-3.393 7.038-.183.146-.404.218-.622.218z"/><path d="m50.01 23.963c-.553 0-1-.447-1-1s.447-1 1-1c3.859 0 7-3.141 7-7s-3.141-7-7-7c-1.235 0-2.448.325-3.507.94-.478.276-1.091.116-1.367-.361-.278-.478-.115-1.09.361-1.367 1.364-.793 2.925-1.212 4.513-1.212 4.963 0 9 4.037 9 9s-4.037 9-9 9z"/><path d="m44.002 13.896c-.252 0-.505-.095-.699-.285-.395-.387-.401-1.02-.016-1.414 1.105-1.129 1.713-2.62 1.713-4.197 0-3.309-2.691-6-6-6s-6 2.691-6 6c0 .553-.447 1-1 1s-1-.447-1-1c0-4.411 3.589-8 8-8s8 3.589 8 8c0 2.104-.811 4.091-2.283 5.596-.196.2-.455.3-.715.3z"/><path d="m23 64c-5.514 0-10-4.486-10-10s4.486-10 10-10c.553 0 1 .447 1 1s-.447 1-1 1c-4.411 0-8 3.589-8 8s3.589 8 8 8 8-3.589 8-8c0-.553.447-1 1-1s1 .447 1 1c0 5.514-4.486 10-10 10z"/><path d="m14.052 55.947c-.031 0-.063-.001-.094-.004-5.683-.529-9.968-5.236-9.968-10.951 0-2.985 1.176-5.779 3.311-7.867.396-.387 1.029-.378 1.414.016.387.395.379 1.028-.016 1.414-1.747 1.708-2.709 3.994-2.709 6.438 0 4.676 3.505 8.527 8.153 8.959.55.052.954.539.903 1.089-.048.518-.483.906-.994.906z"/><path d="m5.371 43.248c-.234 0-.47-.082-.659-.248-1.732-1.52-2.726-3.712-2.726-6.016 0-2.622 1.289-5.082 3.447-6.579.454-.316 1.077-.201 1.392.251.315.454.202 1.077-.251 1.392-1.62 1.124-2.588 2.97-2.588 4.937 0 1.728.745 3.372 2.044 4.512.415.364.457.996.093 1.411-.198.225-.475.34-.752.34z"/><path d="m6.001 32.229c-.218 0-.438-.071-.622-.218-2.156-1.719-3.393-4.284-3.393-7.038 0-3.089 1.556-5.926 4.161-7.589.466-.299 1.084-.161 1.381.305s.161 1.084-.305 1.381c-2.027 1.294-3.237 3.501-3.237 5.903 0 2.142.962 4.137 2.639 5.474.432.345.503.974.159 1.405-.197.248-.489.377-.783.377z"/><path d="m13.99 23.963c-4.963 0-9-4.037-9-9s4.037-9 9-9c1.588 0 3.148.419 4.513 1.212.477.277.64.89.361 1.367-.277.478-.89.639-1.367.361-1.059-.615-2.271-.94-3.507-.94-3.859 0-7 3.141-7 7s3.141 7 7 7c.553 0 1 .447 1 1s-.447 1-1 1z"/><path d="m19.998 13.896c-.26 0-.519-.101-.715-.301-1.472-1.504-2.283-3.491-2.283-5.595 0-4.411 3.589-8 8-8s8 3.589 8 8c0 .553-.447 1-1 1s-1-.447-1-1c0-3.309-2.691-6-6-6s-6 2.691-6 6c0 1.577.608 3.068 1.713 4.197.386.395.379 1.027-.016 1.414-.194.191-.447.285-.699.285z"/></g><path d="m26.998 23c-.553 0-1-.447-1-1v-2c0-.553.447-1 1-1s1 .447 1 1v2c0 .553-.447 1-1 1z" fill="#e6e9ed"/><path d="m31.998 21.999c-.553 0-1-.447-1-1v-12.999c0-.553.447-1 1-1s1 .447 1 1v12.999c0 .553-.447 1-1 1z" fill="#d770ad"/><path d="m36.998 23c-.553 0-1-.447-1-1v-2c0-.553.447-1 1-1s1 .447 1 1v2c0 .553-.447 1-1 1z" fill="#e6e9ed"/><path d="m26.998 43.02c-.553 0-1-.447-1-1v-2c0-.553.447-1 1-1s1 .447 1 1v2c0 .552-.447 1-1 1z" fill="#e6e9ed"/><path d="m32 23c-.553 0-1-.447-1-1v-2c0-.553.447-1 1-1s1 .447 1 1v2c0 .553-.447 1-1 1z" fill="#e6e9ed"/><path d="m32 43.02c-.553 0-1-.447-1-1v-2c0-.553.447-1 1-1s1 .447 1 1v2c0 .552-.447 1-1 1z" fill="#e6e9ed"/><path d="m36.998 43.02c-.553 0-1-.447-1-1v-2c0-.553.447-1 1-1s1 .447 1 1v2c0 .552-.447 1-1 1z" fill="#e6e9ed"/><path d="m43.004 27.006h-2c-.553 0-1-.447-1-1s.447-1 1-1h2c.553 0 1 .447 1 1s-.447 1-1 1z" fill="#e6e9ed"/><path d="m43.004 32.006h-2c-.553 0-1-.447-1-1s.447-1 1-1h2c.553 0 1 .447 1 1s-.447 1-1 1z" fill="#e6e9ed"/><path d="m43.004 37.006h-2c-.553 0-1-.447-1-1s.447-1 1-1h2c.553 0 1 .447 1 1s-.447 1-1 1z" fill="#e6e9ed"/><path d="m22.984 27.006h-2c-.553 0-1-.447-1-1s.447-1 1-1h2c.553 0 1 .447 1 1s-.447 1-1 1z" fill="#e6e9ed"/><path d="m22.984 32.006h-2c-.553 0-1-.447-1-1s.447-1 1-1h2c.553 0 1 .447 1 1s-.447 1-1 1z" fill="#e6e9ed"/><path d="m22.984 37.006h-2c-.553 0-1-.447-1-1s.447-1 1-1h2c.553 0 1 .447 1 1s-.447 1-1 1z" fill="#e6e9ed"/><path d="m25 24h14v14h-14z" fill="#e6e9ed"/><path d="m25 38h14v-14h-14zm17-1.99v2.99c0 1.1-.9 2-2 2h-8-8c-1.1 0-2-.9-2-2v-16c0-1.1.9-2 2-2h3 5 5 3c1.1 0 2 .9 2 2v3.01 5z" fill="#a0d468"/><path d="m35 31.001h-6c-.553 0-1-.447-1-1s.447-1 1-1h6c.553 0 1 .447 1 1s-.447 1-1 1z" fill="#ccd1d9"/><path d="m33 34.001h-2c-.553 0-1-.447-1-1s.447-1 1-1h2c.553 0 1 .447 1 1s-.447 1-1 1z" fill="#ccd1d9"/></svg>