<svg id="icons" enable-background="new 0 0 64 64" height="512" viewBox="0 0 64 64" width="512" xmlns="http://www.w3.org/2000/svg"><path d="m9.012 18.5h11.98c1.66 0 3-1.34 3-3v4.988.01c0 1.66-1.34 3-3 3h-11.98c-1.66 0-3-1.34-3-3v-.01-4.988c0 1.66 1.34 3 3 3z" fill="#ccd1d9"/><path d="m23.992 4.5v5c0 1.66-1.34 3-3 3h-11.98c-1.66 0-3-1.34-3-3v-5c0 1.66 1.34 3 3 3h11.98c1.66 0 3-1.34 3-3z" fill="#ccd1d9"/><path d="m9.012 12.5h11.98c1.66 0 3-1.34 3-3v6c0 1.66-1.34 3-3 3h-11.98c-1.66 0-3-1.34-3-3v-6c0 1.66 1.34 3 3 3z" fill="#ccd1d9"/><path d="m20.992 1.5c1.66 0 3 1.342 3 3 0 1.66-1.34 3-3 3h-11.98c-1.66 0-3-1.34-3-3 0-1.658 1.34-3 3-3z" fill="#e6e9ed"/><path d="m20.992 11.998h-11.98c-1.66 0-3-1.34-3-3v1.002c0 1.66 1.34 3 3 3h11.98c1.66 0 3-1.34 3-3v-1.002c0 1.66-1.34 3-3 3z" fill="#aab2bd"/><path d="m20.992 18.004h-11.98c-1.66 0-3-1.34-3-3v1.002c0 1.66 1.34 3 3 3h11.98c1.66 0 3-1.34 3-3v-1.002c0 1.66-1.34 3-3 3z" fill="#aab2bd"/><g fill="#656d78"><path d="m36.994 13.504h-9.994c-.553 0-1-.447-1-1s.447-1 1-1h9.994c.553 0 1 .447 1 1s-.447 1-1 1z"/><path d="m31.998 27.492c-.553 0-1-.447-1-1v-13.988c0-.553.447-1 1-1s1 .447 1 1v13.988c0 .553-.447 1-1 1z"/><path d="m31.998 27.492c-.256 0-.512-.098-.707-.293-.391-.391-.391-1.023 0-1.414l2.996-2.996c.391-.391 1.023-.391 1.414 0s.391 1.023 0 1.414l-2.996 2.996c-.195.196-.451.293-.707.293z"/><path d="m31.998 27.492c-.256 0-.512-.098-.707-.293l-2.996-2.996c-.391-.391-.391-1.023 0-1.414s1.023-.391 1.414 0l2.996 2.996c.391.391.391 1.023 0 1.414-.195.196-.451.293-.707.293z"/></g><path d="m43.008 18.5h11.98c1.66 0 3-1.34 3-3v4.988.01c0 1.66-1.34 3-3 3h-11.98c-1.66 0-3-1.34-3-3v-.01-4.988c0 1.66 1.34 3 3 3z" fill="#ccd1d9"/><path d="m57.988 4.5v5c0 1.66-1.34 3-3 3h-11.98c-1.66 0-3-1.34-3-3v-5c0 1.66 1.34 3 3 3h11.98c1.66 0 3-1.34 3-3z" fill="#ccd1d9"/><path d="m43.008 12.5h11.98c1.66 0 3-1.34 3-3v6c0 1.66-1.34 3-3 3h-11.98c-1.66 0-3-1.34-3-3v-6c0 1.66 1.34 3 3 3z" fill="#ccd1d9"/><path d="m54.988 1.5c1.66 0 3 1.342 3 3 0 1.66-1.34 3-3 3h-11.98c-1.66 0-3-1.34-3-3 0-1.658 1.34-3 3-3z" fill="#e6e9ed"/><path d="m54.988 11.998h-11.98c-1.66 0-3-1.34-3-3v1.002c0 1.66 1.34 3 3 3h11.98c1.66 0 3-1.34 3-3v-1.002c0 1.66-1.34 3-3 3z" fill="#aab2bd"/><path d="m54.988 18.004h-11.98c-1.66 0-3-1.34-3-3v1.002c0 1.66 1.34 3 3 3h11.98c1.66 0 3-1.34 3-3v-1.002c0 1.66-1.34 3-3 3z" fill="#aab2bd"/><path d="m46.998 33.488v8c0 2.211-1.791 4-4 4h-22c-2.211 0-4-1.789-4-4v-8c0 2.211 1.789 4 4 4h22c2.209 0 4-1.789 4-4z" fill="#ccd1d9"/><path d="m42.998 29.488c2.209 0 4 1.791 4 4 0 2.211-1.791 4-4 4h-22c-2.211 0-4-1.789-4-4 0-2.209 1.789-4 4-4z" fill="#e6e9ed"/><path d="m46.998 41.488v9.012c0 2.199-1.791 4-4 4v-.01h-22c-2.211 0-4-1.791-4-4v-9.002c0 2.211 1.789 4 4 4h22c2.209 0 4-1.789 4-4z" fill="#ccd1d9"/><path d="m46.998 58.49v.01c0 2.209-1.791 4-4 4v-.01h-22c-2.211 0-4-1.791-4-4v-8c0 2.209 1.789 4 4 4h22v.01c2.209 0 4-1.801 4-4z" fill="#ccd1d9"/><path d="m42.998 44.488h-22c-2.211 0-4-1.791-4-4v2.002c0 2.209 1.789 4 4 4h22c2.209 0 4-1.791 4-4v-2.002c0 2.209-1.791 4-4 4z" fill="#aab2bd"/><path d="m42.998 53.496h-22c-2.211 0-4-1.791-4-4v2.002c0 2.209 1.789 4 4 4h22c2.209 0 4-1.791 4-4v-2.002c0 2.209-1.791 4-4 4z" fill="#aab2bd"/></svg>