<svg id="icons" enable-background="new 0 0 64 64" height="512" viewBox="0 0 64 64" width="512" xmlns="http://www.w3.org/2000/svg"><path d="m20.97 52.545h-15.97-.01v-1c0-1.1.89-2 2-2h11.98c1.101 0 2 .9 2 2z" fill="#ccd1d9"/><path d="m20.97 52.545h.01v9.969h-15.98v-9.969z" fill="#e6e9ed"/><path d="m58.96 52.516h.02v9.968h-15.98v-9.968z" fill="#e6e9ed"/><path d="m58.96 51.516v1h-15.96-.01v-1c0-1.111.89-2 2-2h11.97c1.11 0 2 .888 2 2z" fill="#ccd1d9"/><path d="m39.97 52.545h.02v9.969h-15.98v-9.969z" fill="#e6e9ed"/><path d="m39.97 51.545v1h-15.96-.02v-1c0-1.1.89-2 2-2h11.98c1.1 0 2 .9 2 2z" fill="#ccd1d9"/><path d="m16.989 57.516h-7.998c-.553 0-1-.447-1-1s.447-1 1-1h7.998c.553 0 1 .447 1 1s-.447 1-1 1z" fill="#ccd1d9"/><path d="m16.989 60.516h-7.998c-.553 0-1-.447-1-1s.447-1 1-1h7.998c.553 0 1 .447 1 1s-.447 1-1 1z" fill="#ccd1d9"/><path d="m19.992 63.484h-14.004c-.553 0-1-.447-1-1s.447-1 1-1h14.004c.553 0 1 .447 1 1s-.447 1-1 1z" fill="#e6e9ed"/><path d="m39.002 63.484h-14.004c-.553 0-1-.447-1-1s.447-1 1-1h14.004c.553 0 1 .447 1 1s-.447 1-1 1z" fill="#e6e9ed"/><path d="m58.012 63.484h-14.004c-.553 0-1-.447-1-1s.447-1 1-1h14.004c.553 0 1 .447 1 1s-.448 1-1 1z" fill="#e6e9ed"/><g fill="#ccd1d9"><path d="m54.982 57.516h-7.998c-.553 0-1-.447-1-1s.447-1 1-1h7.998c.553 0 1 .447 1 1s-.447 1-1 1z"/><path d="m54.982 60.516h-7.998c-.553 0-1-.447-1-1s.447-1 1-1h7.998c.553 0 1 .447 1 1s-.447 1-1 1z"/><path d="m35.979 57.531h-7.999c-.553 0-1-.447-1-1s.447-1 1-1h7.998c.553 0 1 .447 1 1s-.447 1-.999 1z"/><path d="m35.979 60.529h-7.999c-.553 0-1-.447-1-1s.447-1 1-1h7.998c.553 0 1 .447 1 1s-.447 1-.999 1z"/></g><path d="m31.997 47.518c-.553 0-1-.447-1-1v-10.002c0-.553.447-1 1-1s1 .447 1 1v10.002c0 .552-.447 1-1 1z" fill="#656d78"/><path d="m50.994 47.518c-.553 0-1-.447-1-1v-4.998c0-.553.447-1 1-1s1 .447 1 1v4.998c0 .552-.447 1-1 1z" fill="#656d78"/><path d="m12.995 47.518c-.553 0-1-.447-1-1v-4.998c0-.553.447-1 1-1s1 .447 1 1v4.998c0 .552-.447 1-1 1z" fill="#656d78"/><path d="m50.994 42.52h-37.999c-.553 0-1-.447-1-1s.447-1 1-1h37.999c.553 0 1 .447 1 1s-.447 1-1 1z" fill="#656d78"/><path d="m46.985 4.516v8c0 2.209-1.79 4-4 4h-22c-2.21 0-4-1.791-4-4v-8c0 2.209 1.79 4 4 4h22c2.21 0 4-1.791 4-4z" fill="#ccd1d9"/><path d="m42.985.516c2.21 0 4 1.789 4 4 0 2.209-1.79 4-4 4h-22c-2.21 0-4-1.791-4-4 0-2.211 1.79-4 4-4z" fill="#e6e9ed"/><path d="m46.985 12.516v9.01c0 2.201-1.79 4-4 4v-.01h-22c-2.21 0-4-1.789-4-4v-9c0 2.209 1.79 4 4 4h22c2.21 0 4-1.791 4-4z" fill="#ccd1d9"/><path d="m46.985 29.516v.01c0 2.211-1.79 4-4 4v-.01h-22c-2.21 0-4-1.789-4-4v-8c0 2.211 1.79 4 4 4h22v.01c2.21 0 4-1.799 4-4z" fill="#ccd1d9"/><path d="m42.985 15.514h-22c-2.21 0-4-1.789-4-4v2.002c0 2.211 1.79 4 4 4h22c2.21 0 4-1.789 4-4v-2.002c0 2.211-1.79 4-4 4z" fill="#aab2bd"/><path d="m42.985 24.521h-22c-2.21 0-4-1.789-4-4v2.002c0 2.211 1.79 4 4 4h22c2.21 0 4-1.789 4-4v-2.002c0 2.211-1.79 4-4 4z" fill="#aab2bd"/></svg>