<svg id="icons" enable-background="new 0 0 64 64" height="512" viewBox="0 0 64 64" width="512" xmlns="http://www.w3.org/2000/svg"><path d="m43.498 37.009c-.553 0-1-.447-1-1v-15.989c0-.553.447-1 1-1s1 .447 1 1v15.989c0 .553-.447 1-1 1z" fill="#434a54"/><path d="m39.494 17.016h-4.996c-.553 0-1-.447-1-1s.447-1 1-1h4.996c.553 0 1 .447 1 1s-.447 1-1 1z" fill="#434a54"/><path d="m43.498 21.02c-.553 0-1-.447-1-1 0-1.656-1.348-3.004-3.004-3.004-.553 0-1-.447-1-1s.447-1 1-1c2.758 0 5.004 2.245 5.004 5.004 0 .552-.447 1-1 1z" fill="#434a54"/><path d="m59.5 38.011v20.989h-32.98v-20.989c0-1.109.891-2 2-2h14.98 14 .039c1.08.02 1.961.9 1.961 2z" fill="#656d78"/><path d="m6.49 18c1.1 0 2-.89 2.01-1.99 0-1.11-.891-2.01-2-2.01-1.1-.01-2 .89-2 1.99-.01 1.11.879 2 1.99 2.01zm28.01-1.98v2.98c0 1.1-.9 2-2 2h-30c-1.1 0-2-.9-2-2v-6c0-1.1.9-2 2-2h30c1.1 0 2 .9 2 2z" fill="#545c66"/><path d="m8.5 6.01c-.01 1.1-.91 1.99-2.01 1.99-1.111 0-2-.9-1.99-2.01 0-1.1.9-1.99 2-1.99 1.109 0 2 .9 2 2.01z" fill="#a0d468"/><path d="m32.5 11h-30c-1.1 0-2-.9-2-2v-6c0-1.1.9-2 2-2h30c1.1 0 2 .9 2 2v6c0 1.1-.9 2-2 2zm-26.01-3c1.1 0 2-.89 2.01-1.99 0-1.11-.891-2.01-2-2.01-1.1 0-2 .89-2 1.99-.01 1.11.879 2.01 1.99 2.01z" fill="#656d78"/><path d="m8.5 16.01c-.01 1.1-.91 1.99-2.01 1.99-1.111-.01-2-.9-1.99-2.01 0-1.101.9-2 2-1.99 1.109 0 2 .9 2 2.01z" fill="#a0d468"/><path d="m8.5 26c-.01 1.11-.91 2-2.01 2-1.111-.01-2-.91-1.99-2.01 0-1.11.9-2 2-1.99 1.109 0 2 .9 2 2z" fill="#a0d468"/><path d="m6.49 28c1.1 0 2-.89 2.01-2 0-1.1-.891-2-2-2-1.1-.01-2 .88-2 1.99-.01 1.1.879 2 1.99 2.01zm-3.99-7h30c1.1 0 2 .9 2 2v6c0 1.1-.9 2-2 2h-30c-1.1 0-2-.9-2-2v-6c0-1.1.9-2 2-2z" fill="#656d78"/><path d="m21.496 7.984c-.15 0-.305-.034-.449-.107-.492-.249-.691-.851-.441-1.344l1.008-1.996c.248-.491.852-.69 1.344-.441s.689.851.441 1.344l-1.008 1.996c-.176.347-.53.548-.895.548z" fill="#545c66"/><path d="m25.496 7.998c-.15 0-.305-.034-.449-.107-.492-.249-.691-.851-.441-1.344l1.008-1.996c.248-.491.85-.69 1.344-.441.492.249.689.851.441 1.344l-1.008 1.996c-.176.347-.53.548-.895.548z" fill="#545c66"/><path d="m29.496 8.014c-.15 0-.305-.034-.449-.107-.492-.248-.691-.85-.441-1.343l1.008-1.998c.248-.493.848-.694 1.342-.442.494.248.691.85.443 1.343l-1.008 1.998c-.176.348-.528.549-.895.549z" fill="#545c66"/><path d="m21.496 17.982c-.15 0-.305-.034-.449-.107-.492-.249-.691-.851-.441-1.344l1.008-1.996c.248-.491.852-.689 1.344-.441.492.249.689.851.441 1.344l-1.008 1.996c-.176.347-.53.548-.895.548z" fill="#434a54"/><path d="m25.496 17.996c-.15 0-.305-.034-.449-.107-.492-.249-.691-.851-.441-1.344l1.008-1.996c.248-.491.85-.69 1.344-.441.492.249.689.851.441 1.344l-1.008 1.996c-.176.347-.53.548-.895.548z" fill="#434a54"/><path d="m29.496 18.012c-.15 0-.305-.034-.449-.107-.492-.248-.691-.85-.441-1.343l1.008-1.998c.248-.493.848-.693 1.342-.442.494.248.691.85.443 1.343l-1.008 1.998c-.176.348-.528.549-.895.549z" fill="#434a54"/><path d="m21.496 27.98c-.15 0-.305-.034-.449-.107-.492-.249-.691-.851-.441-1.344l1.008-1.996c.248-.492.852-.69 1.344-.441s.689.851.441 1.344l-1.008 1.996c-.176.347-.53.548-.895.548z" fill="#545c66"/><path d="m25.496 27.994c-.15 0-.305-.034-.449-.107-.492-.249-.691-.851-.441-1.344l1.008-1.996c.248-.491.85-.691 1.344-.441.492.249.689.851.441 1.344l-1.008 1.996c-.176.347-.53.548-.895.548z" fill="#545c66"/><path d="m29.496 28.01c-.15 0-.305-.034-.449-.107-.492-.248-.691-.85-.441-1.343l1.008-1.998c.248-.493.848-.693 1.342-.442.494.248.691.85.443 1.343l-1.008 1.998c-.176.348-.528.549-.895.549z" fill="#545c66"/><g fill="#ccd1d9"><path d="m26.52 39.009c-.553 0-1-.447-1-1 0-1.654 1.346-3 3-3 .553 0 1 .447 1 1s-.447 1-1 1-1 .448-1 1c0 .553-.448 1-1 1z"/><path d="m26.52 59.996c-.553 0-1-.447-1-1v-20.987c0-.553.447-1 1-1s1 .447 1 1v20.987c0 .553-.448 1-1 1z"/><path d="m59.5 39.009c-.553 0-1-.447-1-1 0-.552-.449-1-1-1-.553 0-1-.447-1-1s.447-1 1-1c1.654 0 3 1.346 3 3 0 .553-.447 1-1 1z"/><path d="m59.5 59.996c-.553 0-1-.447-1-1v-20.987c0-.553.447-1 1-1s1 .447 1 1v20.987c0 .553-.447 1-1 1z"/><path d="m57.541 37.009h-29.021c-.553 0-1-.447-1-1s.447-1 1-1h29.021c.553 0 1 .447 1 1s-.447 1-1 1z"/></g><path d="m36.484 40.997h-4.988c-.553 0-1-.447-1-1s.447-1 1-1h4.988c.553 0 1 .447 1 1s-.447 1-1 1z" fill="#5d9cec"/><path d="m43.488 44.997h-9.992c-.553 0-1-.447-1-1s.447-1 1-1h9.992c.553 0 1 .447 1 1s-.447 1-1 1z" fill="#a0d468"/><path d="m48.488 44.997h-1c-.553 0-1-.447-1-1s.447-1 1-1h1c.553 0 1 .447 1 1s-.447 1-1 1z" fill="#a0d468"/><path d="m36.496 56.985h-5c-.553 0-1-.447-1-1s.447-1 1-1h5c.553 0 1 .447 1 1s-.447 1-1 1z" fill="#5d9cec"/><path d="m48.488 48.993h-14.994c-.553 0-1-.447-1-1s.447-1 1-1h14.994c.553 0 1 .447 1 1s-.447 1-1 1z" fill="#ed5565"/><path d="m53.494 52.997h-20c-.553 0-1-.447-1-1s.447-1 1-1h20c.553 0 1 .447 1 1s-.447 1-1 1z" fill="#a0d468"/><path d="m22.52 59h3 34.98 3v2c0 1.1-.898 2-2 2h-36.98c-1.111 0-2-.9-2-2z" fill="#e6e9ed"/></svg>