<svg id="icons" enable-background="new 0 0 64 64" height="512" viewBox="0 0 64 64" width="512" xmlns="http://www.w3.org/2000/svg"><g fill="#ccd1d9"><path d="m31.998 15c-.553 0-1-.447-1-1v-3c0-.553.447-1 1-1s1 .447 1 1v3c0 .553-.447 1-1 1z"/><path d="m31.998 54c-.553 0-1-.447-1-1v-3c0-.553.447-1 1-1s1 .447 1 1v3c0 .553-.447 1-1 1z"/><path d="m19.271 20.271c-.256 0-.512-.098-.707-.293l-2.121-2.121c-.391-.391-.391-1.023 0-1.414s1.023-.391 1.414 0l2.121 2.121c.391.391.391 1.023 0 1.414-.195.196-.451.293-.707.293z"/><path d="m46.848 47.85c-.256 0-.512-.098-.707-.293l-2.121-2.121c-.391-.391-.391-1.023 0-1.414s1.023-.391 1.414 0l2.121 2.121c.391.391.391 1.023 0 1.414-.196.195-.451.293-.707.293z"/><path d="m11 32.999c-.552 0-1-.447-1-1 0-.552.447-1 1-1l2.998-.001c.552 0 1 .447 1 1 0 .552-.447 1-1 1z"/><path d="m53 33h-3c-.553 0-1-.447-1-1s.447-1 1-1h3c.553 0 1 .447 1 1s-.447 1-1 1z"/><path d="m17.15 47.848c-.256 0-.512-.098-.707-.292-.391-.391-.391-1.023-.001-1.415l2.119-2.122c.391-.391 1.024-.39 1.415-.001.391.391.391 1.023.001 1.415l-2.119 2.122c-.195.195-.452.293-.708.293z"/><path d="m44.729 20.27c-.256 0-.512-.098-.707-.293-.391-.391-.391-1.023 0-1.414l2.121-2.121c.391-.391 1.023-.391 1.414 0s.391 1.023 0 1.414l-2.121 2.121c-.196.195-.452.293-.707.293z"/></g><circle cx="58" cy="31.868" fill="#e6e9ed" r="6"/><path d="m58.002 30.872c.553 0 1 .447 1 1v2.345c0 .553-.447 1-1 1s-1-.447-1-1v-2.345c0-.553.447-1 1-1z" fill="#ccd1d9"/><path d="m57.972 28.388c.553 0 1.005.447 1.005 1s-.442 1-.994 1h-.011c-.552 0-1-.447-1-1s.448-1 1-1z" fill="#ccd1d9"/><circle cx="50.382" cy="50.38" fill="#e6e9ed" r="6"/><path d="m50.384 49.384c.553 0 1 .447 1 1v2.345c0 .553-.447 1-1 1s-1-.447-1-1v-2.345c0-.553.447-1 1-1z" fill="#ccd1d9"/><path d="m50.354 46.899c.553 0 1.005.447 1.005 1s-.442 1-.994 1h-.011c-.552 0-1-.447-1-1s.448-1 1-1z" fill="#ccd1d9"/><circle cx="13.61" cy="13.61" fill="#e6e9ed" r="6"/><path d="m13.612 12.614c.553 0 1 .447 1 1v2.345c0 .553-.447 1-1 1s-1-.447-1-1v-2.345c0-.552.448-1 1-1z" fill="#ccd1d9"/><path d="m13.582 10.13c.553 0 1.005.447 1.005 1s-.442 1-.994 1h-.011c-.552 0-1-.447-1-1s.448-1 1-1z" fill="#ccd1d9"/><circle cx="6" cy="31.868" fill="#e6e9ed" r="6"/><path d="m6.002 30.872c.553 0 1 .447 1 1v2.345c0 .553-.447 1-1 1s-1-.447-1-1v-2.345c0-.553.447-1 1-1z" fill="#ccd1d9"/><path d="m5.972 28.388c.553 0 1.005.447 1.005 1s-.442 1-.994 1h-.011c-.552 0-1-.447-1-1s.448-1 1-1z" fill="#ccd1d9"/><circle cx="13.612" cy="50.38" fill="#e6e9ed" r="6"/><path d="m13.614 49.384c.553 0 1 .447 1 1v2.345c0 .553-.447 1-1 1s-1-.447-1-1v-2.345c0-.553.448-1 1-1z" fill="#ccd1d9"/><path d="m13.584 46.899c.553 0 1.005.447 1.005 1s-.442 1-.994 1h-.011c-.552 0-1-.447-1-1s.448-1 1-1z" fill="#ccd1d9"/><circle cx="50.38" cy="13.61" fill="#e6e9ed" r="6"/><path d="m50.382 12.614c.553 0 1 .447 1 1v2.345c0 .553-.447 1-1 1s-1-.447-1-1v-2.345c0-.552.447-1 1-1z" fill="#ccd1d9"/><path d="m50.352 10.13c.553 0 1.005.447 1.005 1s-.442 1-.994 1h-.011c-.552 0-1-.447-1-1s.448-1 1-1z" fill="#ccd1d9"/><circle cx="32" cy="6" fill="#e6e9ed" r="6"/><path d="m32.002 5.004c.553 0 1 .447 1 1v2.345c0 .553-.447 1-1 1s-1-.447-1-1v-2.345c0-.553.447-1 1-1z" fill="#ccd1d9"/><path d="m31.972 2.52c.553 0 1.005.447 1.005 1s-.442 1-.994 1h-.011c-.552 0-1-.447-1-1s.448-1 1-1z" fill="#ccd1d9"/><path d="m26.09 26c1.381-2.39 3.96-3.99 6.91-3.99 4.41 0 7.99 3.58 7.99 7.99v.01c2.21 0 4 1.79 4 4 0 2.2-1.79 3.99-4 3.99h-15.98c-3.319 0-6-2.69-6-6s2.681-6 6-6z" fill="#e6e9ed"/><path d="m25.01 26c-3.319 0-6 2.69-6 6s2.681 6 6 6h15.98c2.21 0 4-1.79 4-3.99 0-2.21-1.79-4-4-4v-.01c0-4.41-3.58-7.99-7.99-7.99-2.95 0-5.529 1.601-6.91 3.99zm6.98-12c9.95 0 18 8.06 18 18 0 4.97-2.01 9.47-5.27 12.73-3.25 3.25-7.75 5.27-12.73 5.27-4.96 0-9.46-2.02-12.72-5.27-3.26-3.26-5.28-7.76-5.28-12.73s2.02-9.47 5.28-12.73c3.26-3.25 7.76-5.27 12.72-5.27z" fill="#5d9cec"/><circle cx="31.99" cy="58" fill="#e6e9ed" r="6"/><path d="m31.992 57.004c.553 0 1 .447 1 1v2.345c0 .553-.447 1-1 1s-1-.447-1-1v-2.345c0-.553.447-1 1-1z" fill="#ccd1d9"/><path d="m31.962 54.52c.553 0 1.005.447 1.005 1s-.442 1-.994 1h-.011c-.552 0-1-.447-1-1s.448-1 1-1z" fill="#ccd1d9"/></svg>