<svg id="icons" enable-background="new 0 0 64 64" height="512" viewBox="0 0 64 64" width="512" xmlns="http://www.w3.org/2000/svg"><path d="m51.994 37.998c-.553 0-1-.447-1-1v-5.004c0-.553.447-1 1-1s1 .447 1 1v5.004c0 .553-.447 1-1 1z" fill="#ccd1d9"/><path d="m51.995 37c-6.07 0-11 4.92-11 11v10.002l1.001.998h19.999l1-.998v-10.002c0-6.08-4.921-11-11-11z" fill="#e6e9ed"/><path d="m52.005 28.49c1.374 0 2.5 1.125 2.5 2.5 0 1.387-1.126 2.5-2.5 2.5h-.013c-1.388-.012-2.487-1.113-2.487-2.5 0-1.375 1.112-2.5 2.5-2.5z" fill="#e6e9ed"/><circle cx="51.995" cy="15" fill="#5d9cec" r="9"/><path d="m56.004 46c1.1 0 2 .889 2 2 0 1.1-.9 2-2 2-1.11 0-2-.9-2-2 0-1.111.89-2 2-2z" fill="#656d78"/><path d="m48.006 46c1.1 0 2 .889 2 2 0 1.1-.9 2-2 2-1.11 0-2-.9-2-2 0-1.111.89-2 2-2z" fill="#656d78"/><path d="m1.005 9h35.979v48.998h-35.979z" fill="#e6e9ed"/><path d="m36.984 7v2h-35.979v-2c0-1.111.899-2 2-2h31.979c1.101 0 2 .889 2 2z" fill="#ccd1d9"/><path d="m4.036 7.998c-.553 0-1.005-.447-1.005-1s.442-1 .994-1h.011c.552 0 1 .447 1 1s-.448 1-1 1z" fill="#e6e9ed"/><path d="m7.034 7.998c-.553 0-1.005-.447-1.005-1s.442-1 .994-1h.011c.552 0 1 .447 1 1s-.448 1-1 1z" fill="#e6e9ed"/><path d="m10.038 7.998c-.553 0-1.005-.447-1.005-1s.442-1 .994-1h.011c.552 0 1 .447 1 1s-.448 1-1 1z" fill="#e6e9ed"/><path d="m35.979 59h-33.972c-.553 0-1-.447-1-1s.447-1 1-1h33.973c.553 0 1 .447 1 1s-.448 1-1.001 1z" fill="#e6e9ed"/><path d="m31.98 28h-25.99c-.553 0-1 .447-1 1v2.586l-1.709 1.709c-.188.188-.293.441-.293.707s.105.52.293.707l1.709 1.707v2.578c0 .553.447 1 1 1h25.99c.553 0 1-.447 1-1v-9.994c0-.553-.447-1-1-1z" fill="#fff"/><path d="m27.98 33.496h-17.99c-.553 0-1-.447-1-1s.447-1 1-1h17.99c.553 0 1 .447 1 1s-.447 1-1 1z" fill="#e6e9ed"/><path d="m18.984 36.496h-8.994c-.553 0-1-.447-1-1s.447-1 1-1h8.994c.553 0 1 .447 1 1s-.447 1-1 1z" fill="#e6e9ed"/><path d="m34.688 18.297-1.709-1.707v-2.588c0-.553-.447-1-1-1h-25.989c-.553 0-1 .447-1 1v9.994c0 .553.447 1 1 1h25.988c.553 0 1-.447 1-1v-2.578l1.709-1.707c.188-.188.293-.441.293-.707s-.105-.52-.292-.707z" fill="#fff"/><path d="m27.98 18.5h-17.99c-.553 0-1-.447-1-1s.447-1 1-1h17.99c.553 0 1 .447 1 1s-.447 1-1 1z" fill="#e6e9ed"/><path d="m18.984 21.5h-8.994c-.553 0-1-.447-1-1s.447-1 1-1h8.994c.553 0 1 .447 1 1s-.447 1-1 1z" fill="#e6e9ed"/><path d="m32.689 43.291c-.188-.189-.442-.295-.709-.295h-26.001c-.55 0-.997.443-1 .994l-.041 7c-.002.268.104.523.291.711.188.189.442.295.709.295h26c.55 0 .997-.443 1-.994l.043-7c.001-.266-.103-.522-.292-.711z" fill="#fff"/><path d="m16.973 56.002h-10.993c-.553 0-1-.447-1-1s.447-1 1-1h10.992c.553 0 1 .447 1 1s-.447 1-.999 1z" fill="#5d9cec"/><path d="m32.005 56.002c-.553 0-1.005-.447-1.005-1s.442-1 .994-1h.011c.552 0 1 .447 1 1s-.448 1-1 1z" fill="#ccd1d9"/><path d="m29.005 56.002c-.553 0-1.005-.447-1.005-1s.442-1 .994-1h.011c.552 0 1 .447 1 1s-.448 1-1 1z" fill="#ccd1d9"/><path d="m56.501 54.998c-.55 0-2.451 0-3.001 0h-2c-.55 0-3.452 0-4.002 0h-.999c-.55 0-1 .451-1 1v1.961c0 .551.45 1.006 1 1.014l.999.014c.55.007 3.452.013 4.002.013h2 3.001.989c.55 0 1-.451 1-1v-2.002c0-.549-.45-1-1-1z" fill="#5d9cec"/><g fill="#4a89dc"><path d="m48.499 54.998h-.007v3.988h.007c.548.008 1.442.014 1.993.014 0-.002 0-.002 0-.002v-4c-.551 0-1.445 0-1.993 0z"/><path d="m53.5 54.998h-.007v4 .002h.007 1.993c0-.002 0-.002 0-.002v-4c-.551 0-1.445 0-1.993 0z"/><path d="m56.99 16c-.256 0-.512-.098-.707-.293l-1.998-2c-.391-.391-.391-1.023 0-1.414s1.023-.391 1.414 0l1.998 2c.391.391.391 1.025 0 1.414-.195.195-.451.293-.707.293z"/><path d="m54.992 17.996c-.256 0-.512-.098-.707-.293-.391-.391-.391-1.023 0-1.414l1.998-1.998c.391-.391 1.023-.391 1.414 0s.391 1.023 0 1.414l-1.998 1.998c-.195.195-.451.293-.707.293z"/><path d="m46.994 16.002c-.256 0-.512-.098-.707-.293-.391-.391-.391-1.023 0-1.414l2-2.002c.391-.391 1.023-.391 1.414 0s.391 1.023 0 1.414l-2 2.002c-.195.195-.451.293-.707.293z"/><path d="m48.994 17.998c-.256 0-.512-.098-.707-.293l-2-2c-.391-.391-.391-1.023 0-1.414s1.023-.391 1.414 0l2 2c.391.391.391 1.023 0 1.414-.195.195-.451.293-.707.293z"/><path d="m50.995 20.002c-.08 0-.162-.01-.243-.029-.536-.135-.862-.676-.729-1.213l1.999-8.002c.133-.535.675-.863 1.212-.727.536.133.862.676.729 1.211l-1.999 8.002c-.113.455-.521.758-.969.758z"/></g><circle cx="41.995" cy="58" fill="#e6e9ed" r="1"/><circle cx="61.995" cy="58" fill="#e6e9ed" r="1"/></svg>