<svg id="icons" enable-background="new 0 0 64 64" height="512" viewBox="0 0 64 64" width="512" xmlns="http://www.w3.org/2000/svg"><path d="m60 50.021c-.553 0-1-.447-1-1v-2.996c0-.553.447-1 1-1s1 .447 1 1v2.996c0 .553-.447 1-1 1z" fill="#8cc152"/><path d="m57 56.027c-.553 0-1-.447-1-1v-9.002c0-.553.447-1 1-1s1 .447 1 1v9.002c0 .553-.447 1-1 1z" fill="#8cc152"/><path d="m54 49.02c-.553 0-1-.447-1-1v-1.994c0-.553.447-1 1-1s1 .447 1 1v1.994c0 .552-.447 1-1 1z" fill="#8cc152"/><path d="m51 52.023c-.553 0-1-.447-1-1v-4.998c0-.553.447-1 1-1s1 .447 1 1v4.998c0 .553-.447 1-1 1z" fill="#8cc152"/><path d="m57.5 11.02v19h-4v-19c0-1.109.9-2 2-2s2 .89 2 2z" fill="#844747"/><path d="m53.5 30.02h4 2c1.66 0 3 1.341 3 3v1.98h-14v-1.98c0-1.659 1.34-3 3-3z" fill="#965353"/><path d="m48.5 35h14v8.03h-14z" fill="#ffd2a6"/><path d="m48.5 43.03h14v2c0 .55-.45 1-1 1h-3-3-3-3c-.55 0-1-.45-1-1z" fill="#a0d468"/><path d="m4.51 60h36.99v.04 2.96h-40v-59h2.97.04z" fill="#ccd1d9"/><path d="m44.5 7h-6v-6z" fill="#f5f7fa"/><path d="m44.5 7v53h-3-36.99v-56-3h33.99v6z" fill="#e6e9ed"/><g fill="#ccd1d9"><path d="m18.502 35.004c0-.553-.447-1-1-1-1.654 0-3-1.347-3-3.002v-4.002c0-.771-.301-1.468-.78-2 .479-.531.78-1.229.78-2v-4c0-1.654 1.346-3 3-3 .553 0 1-.448 1-1s-.447-1-1-1c-2.757 0-5 2.243-5 5v4c0 .552-.448 1-1 1-.553 0-1 .448-1 1 0 .553.447 1 1 1 .552 0 1 .449 1 1v4.002c0 2.759 2.243 5.002 5 5.002.553 0 1-.447 1-1z"/><path d="m37.502 24c-.552 0-1-.448-1-1v-4c0-2.758-2.243-5-5-5-.553 0-1 .448-1 1s.447 1 1 1c1.654 0 3 1.346 3 3v4c0 .771.301 1.469.78 2-.479.532-.78 1.229-.78 2v4.002c0 1.655-1.346 3.002-3 3.002-.553 0-1 .447-1 1s.447 1 1 1c2.757 0 5-2.243 5-5.002v-4.002c0-.551.448-1 1-1 .553 0 1-.447 1-1 0-.552-.447-1-1-1z"/><path d="m20.528 24h-.011c-.552 0-.994.448-.994 1 0 .553.452 1 1.005 1 .552 0 1-.447 1-1 0-.552-.448-1-1-1z"/><path d="m24.532 26c.552 0 1-.447 1-1 0-.552-.448-1-1-1h-.011c-.552 0-.994.448-.994 1 0 .553.452 1 1.005 1z"/><path d="m29.534 25c0-.552-.448-1-1-1h-.011c-.552 0-.994.448-.994 1 0 .553.452 1 1.005 1 .552 0 1-.447 1-1z"/></g><path d="m19.502 47.004c-.553 0-1 .447-1 1 0 .552-.448 1-1 1s-1-.448-1-1v-4c0-.552.448-1 1-1 .551 0 .998.448.998 1 0 .553.447 1 1 1s1-.447 1-1c0-1.654-1.345-3-2.998-3-1.654 0-3 1.346-3 3v4c0 1.654 1.346 3 3 3s3-1.346 3-3c0-.553-.447-1-1-1z" fill="#8cc152"/><path d="m31.502 43.004c.551 0 .998.448.998 1 0 .553.447 1 1 1s1-.447 1-1c0-1.654-1.345-3-2.998-3-1.654 0-3 1.346-3 3 0 1.617 1.474 2.355 2.55 2.895.846.423 1.444.751 1.444 1.105 0 .552-.448 1-1 1s-1-.448-1-1c0-.553-.447-1-1-1s-1 .447-1 1c0 1.654 1.346 3 3 3s3-1.346 3-3c0-1.617-1.474-2.355-2.55-2.895-.846-.423-1.444-.751-1.444-1.105 0-.552.448-1 1-1z" fill="#8cc152"/><path d="m24.495 43.004c.551 0 .998.448.998 1 0 .553.447 1 1 1s1-.447 1-1c0-1.654-1.345-3-2.998-3-1.654 0-3 1.346-3 3 0 1.617 1.474 2.355 2.55 2.895.846.423 1.444.751 1.444 1.105 0 .552-.448 1-1 1s-1-.448-1-1c0-.553-.447-1-1-1s-1 .447-1 1c0 1.654 1.346 3 3 3s3-1.346 3-3c0-1.617-1.474-2.355-2.55-2.895-.846-.423-1.444-.751-1.444-1.105 0-.552.448-1 1-1z" fill="#8cc152"/></svg>