<svg id="icons" enable-background="new 0 0 64 64" height="512" viewBox="0 0 64 64" width="512" xmlns="http://www.w3.org/2000/svg"><path d="m53.99 11v27c-1.58 0-3.13.42-4.5 1.21-1.32.76-2.471 1.88-3.29 3.29v.01c-.82 1.42-1.2 2.95-1.2 4.48h-43.001l-.999-1v-34.99zm-14 29v-3h-8.99v3zm-12.99 3.01v-28.01h-22v28.01h1 5z" fill="#e6e9ed"/><path d="m26.996 14.001h-21.994c-.553 0-1 .448-1 1v28.003c0 .553.447 1 1 1h21.994c.553 0 1-.447 1-1v-28.002c0-.553-.447-1.001-1-1.001z" fill="#5d9cec"/><path d="m53.99 11h-52.99v-2c0-1.11.89-2 2-2h48.99c1.109 0 2 .89 2 2z" fill="#ccd1d9"/><path d="m53.99 38c1.529 0 3.08.39 4.5 1.2 0 .01.01.01.01.01 1.41.811 2.52 1.96 3.28 3.28.8 1.359 1.22 2.92 1.22 4.5 0 1.53-.39 3.09-1.21 4.51-2.48 4.3-7.99 5.78-12.29 3.29-2.88-1.66-4.49-4.68-4.5-7.78 0-.01 0-.01 0-.02 0-1.53.38-3.061 1.2-4.48v-.01c.819-1.41 1.97-2.53 3.29-3.29 1.37-.79 2.92-1.21 4.5-1.21zm.01 7.5c-.83 0-1.5.67-1.5 1.5s.67 1.5 1.5 1.5 1.5-.67 1.5-1.5-.67-1.5-1.5-1.5z" fill="#f5f7fa"/><path d="m4.03 10c-.553 0-1.005-.448-1.005-1s.443-1 .995-1h.01c.552 0 1 .448 1 1s-.448 1-1 1z" fill="#e6e9ed"/><path d="m7.028 10c-.553 0-1.005-.448-1.005-1s.442-1 .994-1h.011c.552 0 1 .448 1 1s-.448 1-1 1z" fill="#e6e9ed"/><path d="m10.032 10c-.553 0-1.005-.448-1.005-1s.442-1 .994-1h.011c.552 0 1 .448 1 1s-.448 1-1 1z" fill="#e6e9ed"/><path d="m26.996 44.005c.376 0 .691-.216.862-.522l-8.077-10.107c-.026-.033-.063-.049-.094-.078-.024-.024-.037-.056-.065-.078-.022-.018-.049-.021-.072-.037-.061-.041-.122-.071-.189-.098-.057-.022-.111-.042-.171-.054-.064-.013-.127-.016-.192-.016-.063 0-.124.003-.188.016-.061.012-.116.031-.175.055-.065.025-.126.056-.186.096-.023.016-.051.02-.073.038-.028.022-.042.055-.066.079-.029.029-.066.045-.093.078l-8.492 10.628z" fill="#656d78"/><path d="m10.504 18.996c-1.379 0-2.5 1.121-2.5 2.5 0 1.378 1.121 2.5 2.5 2.5s2.5-1.122 2.5-2.5c0-1.379-1.121-2.5-2.5-2.5z" fill="#ffce54"/><path d="m50.02 18.998h-17.994c-.553 0-1-.448-1-1 0-.553.447-1 1-1h17.994c.553 0 1 .447 1 1 0 .552-.448 1-1 1z" fill="#ccd1d9"/><path d="m50.02 21.998h-17.994c-.553 0-1-.448-1-1 0-.553.447-1 1-1h17.994c.553 0 1 .447 1 1 0 .552-.448 1-1 1z" fill="#ccd1d9"/><path d="m50.02 24.998h-17.994c-.553 0-1-.448-1-1 0-.553.447-1 1-1h17.994c.553 0 1 .447 1 1 0 .552-.448 1-1 1z" fill="#ccd1d9"/><path d="m50.02 28.002h-17.994c-.553 0-1-.448-1-1 0-.553.447-1 1-1h17.994c.553 0 1 .447 1 1 0 .552-.448 1-1 1z" fill="#ccd1d9"/><path d="m50.02 31.008h-17.994c-.553 0-1-.448-1-1 0-.553.447-1 1-1h17.994c.553 0 1 .447 1 1 0 .552-.448 1-1 1z" fill="#ccd1d9"/><path d="m41.011 33.999h-8.984c-.553 0-1-.447-1-1 0-.552.447-1 1-1h8.984c.553 0 1 .448 1 1 0 .553-.448 1-1 1z" fill="#ccd1d9"/><path d="m40.995 35.996h-8.998c-.553 0-1 .447-1 1v1.999c0 .553.447 1 1 1h8.998c.553 0 1-.447 1-1v-1.999c0-.553-.447-1-1-1z" fill="#5d9cec"/><path d="m54 46.498c-.553 0-1-.447-1-1v-3.497c0-.553.447-1 1-1s1 .447 1 1v3.497c0 .553-.447 1-1 1z" fill="#545c66"/><g fill="#ccd1d9"><path d="m53.99 40.001c-.553 0-1-.447-1-1v-1.003c0-.553.447-1 1-1s1 .447 1 1v1.003c0 .553-.447 1-1 1z"/><path d="m49.993 41.076c-.346 0-.683-.18-.867-.501l-.5-.868c-.276-.479-.111-1.09.367-1.365.479-.277 1.091-.111 1.365.367l.5.868c.276.479.111 1.09-.367 1.365-.157.091-.329.134-.498.134z"/><path d="m47.067 44.007c-.17 0-.342-.043-.499-.134l-.869-.502c-.479-.276-.643-.888-.366-1.366.276-.479.888-.643 1.366-.366l.869.502c.479.276.643.888.366 1.366-.185.321-.521.5-.867.5z"/><path d="m46.002 48.007h-1.004c-.553 0-1-.447-1-1s.447-1 1-1h1.004c.553 0 1 .447 1 1s-.447 1-1 1z"/><path d="m63 47.991h-1.004c-.553 0-1-.447-1-1s.447-1 1-1h1.004c.553 0 1 .447 1 1s-.447 1-1 1z"/><path d="m60.923 43.993c-.346 0-.682-.179-.867-.5-.276-.479-.112-1.09.366-1.366l.869-.502c.477-.275 1.089-.113 1.366.366.276.479.112 1.09-.366 1.366l-.869.502c-.157.091-.329.134-.499.134z"/><path d="m57.989 41.068c-.17 0-.343-.043-.5-.135-.479-.276-.642-.889-.364-1.366l.504-.87c.277-.479.89-.644 1.366-.364.479.276.642.889.364 1.366l-.504.87c-.185.321-.521.499-.866.499z"/></g><path d="m12.762 36.349c-.02-.023-.047-.033-.068-.054-.017-.017-.024-.039-.043-.055-.029-.024-.065-.032-.096-.054-.062-.041-.121-.079-.188-.105-.058-.023-.114-.036-.174-.048-.063-.013-.125-.022-.19-.022-.066 0-.128.01-.193.022-.06.012-.116.025-.173.048-.065.025-.123.062-.183.102-.033.021-.071.03-.102.057-.02.017-.028.041-.046.06-.021.02-.046.028-.064.05l-6.515 7.601c.089.026.178.056.275.056h4.723l4.631-5.796z" fill="#545c66"/><path d="m53.99 57c-1.746 0-3.473-.464-4.992-1.341-4.774-2.757-6.417-8.885-3.661-13.66 1.782-3.085 5.104-5.002 8.671-5.002 1.745 0 3.472.464 4.992 1.341 4.773 2.759 6.415 8.887 3.659 13.661-1.782 3.085-5.103 5.001-8.669 5.001zm.018-18.003c-2.854 0-5.513 1.534-6.938 4.002-2.205 3.82-.891 8.723 2.929 10.928 1.215.702 2.596 1.073 3.991 1.073 2.854 0 5.511-1.533 6.937-4.001 2.205-3.819.891-8.723-2.927-10.929-1.217-.702-2.597-1.073-3.992-1.073z" fill="#656d78"/><circle cx="53.998" cy="46.998" fill="#656d78" r="2"/><circle cx="2" cy="45.99" fill="#e6e9ed" r="1"/></svg>