<svg id="icons" enable-background="new 0 0 64 64" height="512" viewBox="0 0 64 64" width="512" xmlns="http://www.w3.org/2000/svg"><path d="m4 16v36h-2.001l-.999-1v-35z" fill="#545c66"/><path d="m49 14v2h-45-3v-2c0-1.11.89-2 2-2h44c1.11 0 2 .89 2 2z" fill="#aab2bd"/><path d="m49 16v14h-.01-.07-8.92l-5 6 14 16h-45v-36z" fill="#656d78"/><path d="m44.01 36 4.99 16-14-16z" fill="#3bafda"/><path d="m53.99 36-4.99 16-4.99-16z" fill="#4fc1e9"/><path d="m63 36-14 16 4.99-16z" fill="#3bafda"/><path d="m57.99 30 5.01 6h-9.01z" fill="#4fc1e9"/><path d="m49 30h8.99l-4 6-5-6z" fill="#3bafda"/><path d="m48.99 30 5 6h-9.98l4.91-5.91v-.09z" fill="#4fc1e9"/><path d="m48.92 30v.09l-4.91 5.91-4.01-6z" fill="#3bafda"/><path d="m40 30 4.01 6h-9.01z" fill="#4fc1e9"/><g fill="#ccd1d9"><path d="m4.03 15c-.553 0-1.005-.448-1.005-1s.442-1 .994-1h.011c.552 0 1 .448 1 1s-.448 1-1 1z"/><path d="m7.03 15c-.553 0-1.005-.448-1.005-1s.442-1 .994-1h.011c.552 0 1 .448 1 1s-.448 1-1 1z"/><path d="m10.03 15c-.553 0-1.005-.448-1.005-1s.442-1 .994-1h.011c.552 0 1 .448 1 1s-.448 1-1 1z"/></g><path d="m25 21h-17c-.553 0-1-.448-1-1s.447-1 1-1h17c.553 0 1 .448 1 1s-.447 1-1 1z" fill="#5d9cec"/><path d="m21 25h-11c-.553 0-1-.448-1-1s.447-1 1-1h11c.553 0 1 .448 1 1s-.447 1-1 1z" fill="#a0d468"/><path d="m20 45.012h-10c-.553 0-1-.447-1-1s.447-1 1-1h10c.553 0 1 .447 1 1s-.447 1-1 1z" fill="#a0d468"/><path d="m31.004 25h-6.004c-.553 0-1-.448-1-1s.447-1 1-1h6.004c.553 0 1 .448 1 1s-.447 1-1 1z" fill="#a0d468"/><path d="m14 49h-6c-.553 0-1-.447-1-1s.447-1 1-1h6c.553 0 1 .447 1 1s-.447 1-1 1z" fill="#5d9cec"/><path d="m16 29h-4c-.553 0-1-.448-1-1s.447-1 1-1h4c.553 0 1 .448 1 1s-.447 1-1 1z" fill="#ed5565"/><path d="m34.004 29h-14.004c-.553 0-1-.448-1-1s.447-1 1-1h14.004c.553 0 1 .448 1 1s-.447 1-1 1z" fill="#ed5565"/><path d="m33.004 33h-21.004c-.553 0-1-.448-1-1s.447-1 1-1h21.004c.553 0 1 .448 1 1s-.447 1-1 1z" fill="#ffce54"/><path d="m23 37h-11c-.553 0-1-.447-1-1s.447-1 1-1h11c.553 0 1 .447 1 1s-.447 1-1 1z" fill="#ffce54"/><path d="m32.004 41h-14.004c-.553 0-1-.447-1-1s.447-1 1-1h14.004c.553 0 1 .447 1 1s-.447 1-1 1z" fill="#ed5565"/><path d="m14 41h-2c-.553 0-1-.447-1-1s.447-1 1-1h2c.553 0 1 .447 1 1s-.447 1-1 1z" fill="#ed5565"/><circle cx="2" cy="51" fill="#545c66" r="1"/></svg>